<svg width="770" height="607" viewBox="0 0 770 607" fill="none" xmlns="http://www.w3.org/2000/svg">
<path d="M378.961 607C486.944 607 574.48 594.97 574.48 580.13C574.48 565.291 486.944 553.261 378.961 553.261C270.979 553.261 183.442 565.291 183.442 580.13C183.442 594.97 270.979 607 378.961 607Z" fill="#3F3D56"/>
<path d="M709.702 350.386L634.118 389.564L701.013 334.781C690.141 316.195 677.927 298.593 664.488 282.143L336.686 371.375L632.784 247.673C619.253 234.598 604.883 222.603 589.787 211.78L90.2932 299.893C37.2596 372.524 8.34943 462.743 8.30859 555.741H760.182C760.151 483.617 742.738 412.779 709.702 350.386Z" fill="#FFFEFE"/>
<path d="M548.907 186.343C497.624 158.95 441.302 144.756 384.245 144.844C268.118 144.844 164.296 202.513 95.3359 293.122C213.422 264.785 419.021 215.733 548.907 186.343Z" fill="#FFFEFE"/>
<path opacity="0.4" d="M622.855 225.936C629.075 225.936 634.118 220.413 634.118 213.6C634.118 206.788 629.075 201.265 622.855 201.265C616.634 201.265 611.591 206.788 611.591 213.6C611.591 220.413 616.634 225.936 622.855 225.936Z" fill="#FF7245"/>
<path opacity="0.4" d="M602.009 228.145C606.372 228.145 609.91 224.271 609.91 219.492C609.91 214.713 606.372 210.839 602.009 210.839C597.645 210.839 594.107 214.713 594.107 219.492C594.107 224.271 597.645 228.145 602.009 228.145Z" fill="#FF7245"/>
<path opacity="0.4" d="M89.6463 272.123C102.674 272.123 113.235 260.556 113.235 246.288C113.235 232.02 102.674 220.454 89.6463 220.454C76.6183 220.454 66.0571 232.02 66.0571 246.288C66.0571 260.556 76.6183 272.123 89.6463 272.123Z" fill="#FF7245"/>
<path opacity="0.4" d="M45.989 276.75C55.128 276.75 62.5366 268.636 62.5366 258.627C62.5366 248.618 55.128 240.505 45.989 240.505C36.8501 240.505 29.4414 248.618 29.4414 258.627C29.4414 268.636 36.8501 276.75 45.989 276.75Z" fill="#FF7245"/>
<path d="M770 554.914H0V556.568H770V554.914Z" fill="#2F2E41"/>
<path d="M682.764 554.914L622.793 457.357C622.793 457.357 713.614 492.081 703.307 554.914H682.764Z" fill="#3F3D56"/>
<path d="M685.118 554.914L745.089 457.357C745.089 457.357 654.268 492.081 664.575 554.914H685.118Z" fill="#FF7245"/>
<path d="M157.02 109.769C157.02 104.398 150.026 100.043 141.4 100.043C141.229 100.043 141.06 100.048 140.89 100.051C138.288 91.3147 125.986 84.6985 111.201 84.6985C98.6214 84.6985 87.8399 89.4882 83.2997 96.298C79.9454 95.3257 76.4887 94.841 73.0189 94.8563C59.7914 94.8563 49.0684 101.533 49.0684 109.769C49.0684 117.25 57.9172 123.444 69.4533 124.516C77.8363 126.195 90.9306 127.275 105.647 127.275C130.632 127.275 148.913 122.055 149.372 118.132C153.951 116.436 157.02 113.326 157.02 109.769Z" fill="#FFFEFE"/>
<path d="M534.471 113.903C534.471 108.531 527.477 104.177 518.851 104.177C518.68 104.177 518.511 104.182 518.341 104.185C515.739 95.4485 503.437 88.8323 488.653 88.8323C476.072 88.8323 465.291 93.622 460.751 100.432C457.397 99.4595 453.94 98.9748 450.469 98.9901C437.242 98.9901 426.52 105.667 426.52 113.903C426.52 121.384 435.368 127.578 446.904 128.65C455.287 130.329 468.382 131.409 483.098 131.409C508.083 131.409 526.364 126.189 526.823 122.266C531.402 120.57 534.471 117.46 534.471 113.903Z" fill="#FFFEFE"/>
<path d="M745.089 44.0048C745.089 34.5768 732.813 26.934 717.672 26.934C717.372 26.934 717.075 26.9421 716.778 26.948C712.211 11.6131 690.618 0 664.666 0C642.585 0 623.662 8.40709 615.693 20.3599C609.804 18.6534 603.738 17.8027 597.646 17.8295C574.43 17.8295 555.608 29.5486 555.608 44.0048C555.608 57.1365 571.14 68.0077 591.388 69.8898C606.103 72.8362 629.086 74.7322 654.917 74.7322C698.772 74.7322 730.86 65.5705 731.666 58.6839C739.701 55.7076 745.089 50.249 745.089 44.0048Z" fill="#FFFEFE"/>
<path d="M430.423 239.682C414.808 210.787 383.914 209.44 383.914 209.44C383.914 209.44 353.812 205.224 334.501 249.232C316.501 290.252 291.659 329.857 330.501 339.459L337.517 315.544L341.862 341.239C347.393 341.675 352.94 341.779 358.481 341.55C400.077 340.08 439.691 341.981 438.416 325.633C436.72 303.902 445.447 267.485 430.423 239.682Z" fill="#2F2E41"/>
<path d="M328.284 492.734C327.825 495.912 327.159 499.051 326.292 502.125C325.315 505.134 323.806 507.917 322.912 510.957C320.065 520.648 324.013 531.453 330.318 538.932C335.786 545.393 342.844 549.983 350.641 552.149C356.329 553.716 362.244 553.941 368.105 554.159C384.338 554.762 400.988 555.301 416.37 549.588C421.229 547.738 425.923 545.403 430.392 542.611C431.803 541.875 433.046 540.803 434.029 539.474C435.204 537.645 435.353 535.273 435.343 533.037C435.309 525.501 433.914 518.003 434.244 510.475C434.429 506.306 435.141 502.14 434.79 497.983C434.305 493.262 432.499 488.821 429.619 485.267C426.741 481.713 422.93 479.221 418.708 478.131C414.345 477.105 409.818 477.664 405.376 478.131C393.846 479.345 382.265 479.912 370.682 479.83C358.846 479.748 347.083 477.769 335.306 477.562C331.823 477.501 331.893 478.677 330.784 482.369C329.764 485.766 328.929 489.228 328.284 492.734Z" fill="#2F2E41"/>
<path d="M361.873 306.644C361.303 309.905 360.689 313.286 358.899 315.967C356.841 319.05 353.483 320.812 351.268 323.764C347.933 328.206 347.742 334.457 347.728 340.208C347.716 345.505 347.814 351.155 350.511 355.553C352.262 358.407 354.926 360.407 357.53 362.329C367.645 369.795 378.576 377.395 390.773 377.641C395.827 377.743 401.245 376.314 404.57 372.145C406.005 370.187 407.135 367.981 407.91 365.618C411.029 357.199 412.919 348.295 413.512 339.233C413.79 334.969 413.764 330.581 412.446 326.558C410.964 322.033 407.969 318.311 405.988 314.021C403.647 308.921 402.791 303.157 403.536 297.507C403.634 297.109 403.604 296.686 403.45 296.31C403.286 296.108 403.084 295.951 402.856 295.85C402.628 295.749 402.382 295.707 402.138 295.728L377.954 293.821C375.701 293.698 373.459 293.417 371.24 292.98C369.936 292.689 366.492 290.662 365.249 291.201C362.948 292.199 362.345 303.939 361.873 306.644Z" fill="#FFB8B8"/>
<path opacity="0.1" d="M361.873 306.644C361.303 309.905 360.689 313.286 358.899 315.967C356.841 319.05 353.483 320.812 351.268 323.764C347.933 328.206 347.742 334.457 347.728 340.208C347.716 345.505 347.814 351.155 350.511 355.553C352.262 358.407 354.926 360.407 357.53 362.329C367.645 369.795 378.576 377.395 390.773 377.641C395.827 377.743 401.245 376.314 404.57 372.145C406.005 370.187 407.135 367.981 407.91 365.618C411.029 357.199 412.919 348.295 413.512 339.233C413.79 334.969 413.764 330.581 412.446 326.558C410.964 322.033 407.969 318.311 405.988 314.021C403.647 308.921 402.791 303.157 403.536 297.507C403.634 297.109 403.604 296.686 403.45 296.31C403.286 296.108 403.084 295.951 402.856 295.85C402.628 295.749 402.382 295.707 402.138 295.728L377.954 293.821C375.701 293.698 373.459 293.417 371.24 292.98C369.936 292.689 366.492 290.662 365.249 291.201C362.948 292.199 362.345 303.939 361.873 306.644Z" fill="black"/>
<path d="M385 310.195C404.595 310.195 420.48 292.798 420.48 271.338C420.48 249.877 404.595 232.48 385 232.48C365.405 232.48 349.52 249.877 349.52 271.338C349.52 292.798 365.405 310.195 385 310.195Z" fill="#FFB8B8"/>
<path d="M366.849 358.369C368.697 360.486 370.657 362.582 373.08 363.823C375.548 364.939 378.198 365.492 380.866 365.446C387.262 365.643 394.196 364.36 398.644 359.324C404.379 352.833 404.191 342.363 408.686 334.79C409.048 334.103 409.543 333.511 410.135 333.055C410.889 332.605 411.741 332.391 412.598 332.435C418.276 332.376 423.221 336.409 427.685 340.252C429.685 341.974 431.734 343.758 432.995 346.177C433.878 348.063 434.483 350.09 434.786 352.183C437.001 364.024 437.719 376.132 438.431 388.195C438.824 394.857 439.217 401.526 439.187 408.203C439.092 430.199 434.424 451.827 429.782 473.228C429.182 475.985 428.364 479.068 426.074 480.388C425.054 480.891 423.958 481.184 422.84 481.253C409.544 482.963 396.22 484.675 382.834 484.901C377.609 484.989 372.388 484.851 367.168 484.486C366.271 484.473 365.379 484.303 364.531 483.982C363.377 483.376 362.386 482.454 361.653 481.306C354.412 471.314 353.985 457.498 354.032 444.741C354.145 413.552 355.162 382.388 357.084 351.248C357.242 348.678 357.278 345.556 355.586 343.534C358.631 348.873 362.866 353.81 366.849 358.369Z" fill="#D0CDE1"/>
<path d="M359.333 313.502C358.135 315.878 349.3 321.777 347.594 323.746C338.064 334.747 320.673 334.334 311.957 346.117C308.89 350.263 307.296 355.472 306.125 360.65C304.468 367.974 303.583 375.962 306.359 382.868C309.03 389.513 314.654 394.107 318.472 400.043C322.663 406.561 324.548 414.474 326.355 422.197C327.689 427.899 329.033 433.743 328.514 439.601C327.923 446.263 324.979 452.362 323.242 458.778C321.504 465.194 321.204 472.836 325.223 477.879C328.174 481.583 332.805 483.052 337.229 483.878C342.898 484.811 348.615 485.356 354.345 485.51C359.403 485.755 364.98 485.802 368.869 482.25C371.938 479.448 373.272 474.899 373.445 470.527C373.617 466.155 372.787 461.822 372.266 457.483C371.727 452.985 371.521 448.448 371.346 443.915C370.569 423.578 370.462 403.228 371.028 382.865C371.146 378.628 371.289 374.339 370.465 370.197C369.379 364.749 366.691 359.881 364.448 354.876C359.995 344.942 357.89 335.292 358.578 324.25C359.259 313.351 363.597 305.048 359.333 313.502Z" fill="#FF7245"/>
<path d="M409.156 314.329C410.982 316.383 417.184 317.061 419.506 318.384C421.69 319.489 423.969 320.353 426.31 320.964C434.778 323.639 442.834 327.689 450.209 332.977C451.742 333.959 453.096 335.24 454.206 336.758C455.504 338.737 455.976 341.206 456.417 343.595C457.554 349.763 458.696 356.005 458.441 362.291C458.169 368.963 456.335 375.426 454.513 381.8L447.711 405.618C442.633 423.397 437.523 441.35 436.095 459.913C435.304 470.2 435.655 480.555 437.141 490.75C437.291 491.775 437.416 492.95 436.798 493.737C436.35 494.222 435.761 494.519 435.132 494.576C431.849 495.138 428.672 493.305 425.697 491.683C416.605 486.727 406.902 483.25 396.894 481.361C400.805 475.171 403.822 468.359 405.84 461.163C406.986 456.594 407.888 451.956 408.543 447.273L411.708 427.228C412.995 419.902 413.901 412.501 414.422 405.062C414.661 402.27 414.513 399.455 413.982 396.712C413.253 394.102 412.284 391.579 411.091 389.182C405.876 377.301 403.429 363.742 405.481 350.753C406.379 345.068 408.124 339.376 407.396 333.662C406.697 328.169 407.424 323.899 406.137 318.463C400.853 296.14 405.722 310.464 409.156 314.329Z" fill="#FF7245"/>
<path d="M311.866 364.902C309.489 370.305 305.513 374.908 304.16 380.721C303.634 383.437 303.408 386.213 303.488 388.989C303.456 393.172 303.435 397.44 304.608 401.421C305.364 403.984 306.593 406.348 307.477 408.86C308.711 412.371 309.26 416.125 309.091 419.882C308.853 425.087 307.238 430.139 307.111 435.349C306.912 443.542 310.373 451.243 313.749 458.557C314.599 456.253 315.898 454.179 317.556 452.482C319.214 450.785 321.19 449.505 323.347 448.731C325.504 447.958 327.788 447.71 330.042 448.005C332.295 448.3 334.463 449.13 336.393 450.438C337.284 449.538 337.378 448.058 337.414 446.731C337.663 437.227 337.904 427.722 338.136 418.217C338.501 403.516 338.849 388.619 335.761 374.308C334.367 367.846 332.198 361.409 328.222 356.397C326.128 353.758 319.018 346.807 315.581 349.763C314.036 351.093 314.397 354.712 314.152 356.544C313.782 359.441 313.012 362.259 311.866 364.902Z" fill="#FF7245"/>
<path d="M459.136 349.33C460.261 353.165 460.327 357.263 460.351 361.291C460.396 369.508 460.297 377.723 460.052 385.937C459.927 390.142 459.754 394.406 458.59 398.415C457.822 401.059 456.637 403.539 455.845 406.174C453.468 414.072 454.767 422.639 454.97 430.951C455.114 433.642 454.904 436.341 454.348 438.966C453.094 444.12 449.723 448.284 447.371 452.953C445.136 457.388 443.789 462.359 441.12 466.496C438.452 470.633 433.833 473.911 429.355 472.641C425.963 471.679 423.553 468.391 421.886 465.015C418.247 457.593 417.003 449.044 418.354 440.751C420.028 430.662 425.44 421.711 427.392 411.682C430.071 397.91 425.998 383.698 426.119 369.616C426.064 367.409 426.338 365.207 426.929 363.096C427.953 359.879 430.151 357.311 432.182 354.731C434.721 351.508 437.077 348.119 439.243 344.583C440.697 342.209 442.671 336.1 445.249 335.592C451.005 334.458 457.708 344.46 459.136 349.33Z" fill="#FF7245"/>
<path d="M282.002 486.609C278.819 485.733 275.54 485.351 272.259 485.475C268.813 485.683 265.447 486.693 262.386 488.437C259.324 490.18 256.636 492.618 254.5 495.587C252.365 498.557 250.831 501.99 250.001 505.659C249.172 509.327 249.064 513.148 249.686 516.865C250.481 520.893 251.78 524.78 253.547 528.418C256.13 534.16 259.228 539.889 264.012 543.568C266.809 545.721 270.048 547.063 273.247 548.383L298.437 558.776C302.143 560.305 305.85 561.834 309.592 563.252C328.393 570.369 347.996 574.637 367.854 575.936C373.902 576.331 380.042 576.441 385.943 574.933C387.343 574.575 388.836 574.041 389.647 572.741C390.127 571.824 390.411 570.8 390.475 569.746L392.025 557.862C392.243 556.189 392.453 554.427 391.893 552.852C391.183 550.855 389.404 549.598 387.707 548.531C371.146 538.114 351.809 532.367 337.869 518.07C334.588 514.704 331.842 509.369 327.855 507.083C323.334 504.49 318.009 503.01 313.336 500.621C303.12 495.398 293.074 489.396 282.002 486.609Z" fill="#2F2E41"/>
<path opacity="0.1" d="M307.15 502.631C316.054 505.686 353.645 526.855 360.089 534.246C359.225 534.586 329.922 516.601 329.043 516.312C321.049 513.685 313.013 511.041 305.422 507.197C303.896 506.423 295.503 502.788 295.883 500.678C296.312 498.297 305.57 502.088 307.15 502.631Z" fill="black"/>
<path d="M418.229 582.1C418.734 582.141 419.235 581.979 419.64 581.645C419.817 581.395 419.948 581.11 420.023 580.804C420.099 580.499 420.119 580.18 420.081 579.866C420.068 574.469 420.054 569.072 420.039 563.676C415.789 561.457 411.034 560.746 406.366 560.063L384.587 556.875C385.088 556.948 381.183 567.148 381.781 568.509C382.837 570.909 390.903 573.036 393.179 574.169C401.093 578.109 409.316 582.439 418.229 582.1Z" fill="#FFB8B8"/>
<path d="M349.901 563.619C345.789 564.337 341.2 564.971 338.536 568.476C335.16 572.922 336.597 579.549 338.208 585.056C338.448 586.17 338.928 587.204 339.609 588.073C340.708 589.26 342.393 589.434 343.935 589.541C347.684 589.801 351.675 590.005 354.952 587.991C356.435 586.916 357.865 585.753 359.231 584.507C361.647 582.746 364.303 581.416 367.1 580.567C372.24 578.796 377.533 577.601 382.894 577.002C385.007 576.896 387.099 576.493 389.117 575.801C391.094 574.985 392.925 573.368 393.498 571.141C394.257 568.199 392.696 565.199 391.198 562.619C389.333 559.405 387.357 556.02 384.575 553.654C380.518 550.202 378.51 552.852 374.423 555.061C366.686 559.242 358.42 562.128 349.901 563.619Z" fill="#FFB8B8"/>
<path d="M339.155 567.676L313.046 559.224C309.871 558.197 306.642 557.16 303.331 557.162C300.019 557.165 296.554 558.354 294.407 561.114C292.382 563.717 291.803 567.273 291.298 570.647L290.219 577.864C289.67 581.532 289.121 585.27 289.614 588.947C290.108 592.624 291.822 596.298 294.802 598.078C298.415 600.236 302.842 599.182 306.875 598.279C315.019 596.456 323.304 595.483 331.617 595.373C334.741 595.332 338.019 595.375 340.781 593.772C344.063 591.867 346.027 587.838 346.365 583.786C346.878 577.622 345.003 569.569 339.155 567.676Z" fill="#2F2E41"/>
<path d="M428.491 560.311C431.876 559.661 434.863 557.555 438.106 556.311C442.671 554.561 447.618 554.561 452.455 554.58C454.23 554.587 456.121 554.631 457.598 555.708C459.729 557.262 460.276 560.37 460.638 563.145L462.824 579.887C463.234 583.035 463.643 586.269 463.002 589.371C462.361 592.473 460.43 595.464 457.619 596.265C454.205 597.237 450.857 594.848 447.634 593.279C439.578 589.358 430.211 590.36 421.81 587.429C420.252 586.885 418.581 586.053 417.945 584.402C417.658 583.472 417.556 582.486 417.646 581.509C417.789 576.128 416.753 568.78 418.231 563.637C419.563 559.012 424.713 560.311 428.491 560.311Z" fill="#2F2E41"/>
<path d="M483.743 479.871C488.96 478.438 494.368 478.033 499.715 478.675C503.985 479.191 508.384 480.492 511.501 483.728C515.296 487.668 516.515 493.76 516.616 499.485C516.783 510.888 513.33 522 506.847 530.924C505.264 533.181 503.381 535.166 501.261 536.813C498.975 538.38 496.537 539.666 493.994 540.649L437.581 565.017C422.741 571.428 407.847 577.857 392.368 582.083C391.945 582.307 391.485 582.436 391.015 582.462C390.546 582.488 390.077 582.412 389.635 582.236C389.192 582.061 388.787 581.79 388.442 581.441C388.098 581.091 387.82 580.67 387.627 580.201C382.684 572.469 378.537 564.162 375.262 555.431C375.107 555.224 375 554.978 374.949 554.716C374.9 554.453 374.908 554.182 374.974 553.923C375.04 553.665 375.162 553.428 375.329 553.233C375.497 553.037 375.705 552.888 375.935 552.799L415.837 527.692C418.694 525.893 421.584 524.069 423.958 521.563C425.682 519.733 427.094 517.58 428.127 515.206C428.954 513.314 429.031 508.849 430.088 507.451C431.122 506.082 434.661 505.973 436.295 505.434C438.599 504.661 440.856 503.726 443.052 502.637C451.978 498.264 459.926 491.91 468.482 486.789C473.281 483.784 478.409 481.46 483.743 479.871Z" fill="#2F2E41"/>
<path opacity="0.1" d="M461.123 498.621C454.268 504.26 445.392 509.443 438.598 515.23C436.279 517.205 397.625 541.006 397.078 544.167C403.417 545.336 443.794 514.401 449.571 511.314C455.348 508.227 460.469 503.874 465.543 499.553C466.836 498.452 472.317 495.142 468.605 493.911C466.513 493.218 462.667 497.494 461.123 498.621Z" fill="black"/>
<path d="M423.518 236.897L392.998 219.388L350.851 226.551L342.13 268.731L363.838 267.816L369.902 252.32V267.561L379.918 267.138L385.732 242.468L389.364 268.731L424.972 267.935L423.518 236.897Z" fill="#2F2E41"/>
<path d="M416.706 323.423H351.029V410.232H416.706V323.423Z" fill="#3F3D56"/>
<path d="M319.851 474.407C321.359 476.873 323.126 479.284 325.548 480.614C327.092 481.387 328.778 481.762 330.475 481.713C332.172 481.663 333.836 481.189 335.341 480.327C338.346 478.562 340.806 475.862 342.408 472.566C345.725 466.152 346.413 458.476 345.999 451.118C345.585 443.76 344.15 436.514 343.515 429.175C343.054 423.84 343.016 418.473 342.979 413.115C342.864 411.988 343.08 410.85 343.596 409.866C344.33 408.768 345.675 408.465 346.867 408.077C353.562 405.899 358.005 399.027 361.19 392.221C363.319 387.676 365.168 382.708 364.758 377.621C364.348 372.534 361.009 367.409 356.369 366.89C352.545 366.462 349.014 369.122 346.255 372.055C339.295 379.498 334.823 389.287 333.555 399.85C332.95 405.023 333.123 410.336 331.838 415.358C329.096 426.08 320.513 432.653 316.237 442.301C311.524 452.932 314.125 465.001 319.851 474.407Z" fill="#FFB8B8"/>
<path d="M446.141 433.445C445.166 435.931 443.743 438.179 441.962 440.054C440.18 441.929 438.074 443.395 435.765 444.364C432.897 445.625 429.732 445.838 426.746 444.968C425.264 444.518 423.897 443.7 422.751 442.578C421.605 441.455 420.711 440.058 420.138 438.496C419.681 436.922 419.43 435.285 419.393 433.634C418.965 426.404 419.131 418.953 421.529 412.2C422.454 409.595 423.7 407.125 424.431 404.447C425.148 401.354 425.515 398.177 425.523 394.986L426.311 375.257C426.442 373.825 426.352 372.379 426.045 370.98C425.257 368.125 422.822 366.27 420.587 364.568C415.188 360.456 409.854 355.659 407.238 349.053C406.34 347.063 406.018 344.821 406.316 342.626C407.054 338.708 410.663 336.172 414.232 335.318C416.566 334.759 418.979 334.723 421.328 335.213C423.674 335.703 425.907 336.708 427.89 338.168C429.874 339.628 431.567 341.512 432.868 343.708C434.168 345.904 435.049 348.365 435.458 350.944C435.81 353.17 435.806 355.444 436.013 357.692C436.451 362.462 437.833 367.059 438.699 371.758C440.828 383.332 439.724 395.296 441.831 406.869C443.592 416.544 450.234 422.858 446.141 433.445Z" fill="#FFB8B8"/>
<path d="M39.7311 554.104L38.2212 554.072C38.8051 535.687 40.5963 517.372 43.5807 499.268C50.1095 460.509 60.9657 435.054 75.8477 423.611L76.7146 424.964C41.9501 451.696 39.7488 553.082 39.7311 554.104Z" fill="#2F2E41"/>
<path d="M58.6035 553.708L57.0938 553.676C57.1263 551.845 58.0698 508.689 73.5829 496.761L74.4499 498.114C59.5627 509.561 58.6109 553.268 58.6035 553.708Z" fill="#2F2E41"/>
<path d="M85.3039 425.114C89.4731 425.114 92.8529 421.412 92.8529 416.846C92.8529 412.28 89.4731 408.579 85.3039 408.579C81.1347 408.579 77.7549 412.28 77.7549 416.846C77.7549 421.412 81.1347 425.114 85.3039 425.114Z" fill="#FF7245"/>
<path d="M81.5657 496.215C85.7348 496.215 89.1146 492.513 89.1146 487.947C89.1146 483.381 85.7348 479.68 81.5657 479.68C77.3964 479.68 74.0166 483.381 74.0166 487.947C74.0166 492.513 77.3964 496.215 81.5657 496.215Z" fill="#FF7245"/>
<path d="M55.0847 430.07C56.5034 439.994 52.8057 448.871 52.8057 448.871C52.8057 448.871 46.8078 441.657 45.3891 431.732C43.9703 421.808 47.6681 412.932 47.6681 412.932C47.6681 412.932 53.666 420.146 55.0847 430.07Z" fill="#2F2E41"/>
<path d="M79.7604 454.173C71.0843 457.432 62.459 454.991 62.459 454.991C62.459 454.991 67.9003 447.266 76.5764 444.007C85.2523 440.747 93.8778 443.188 93.8778 443.188C93.8778 443.188 88.4365 450.914 79.7604 454.173Z" fill="#2F2E41"/>
<path d="M80.0391 517.14C76.1123 518.49 71.9306 518.688 67.9121 517.713C70.4637 514.155 73.9001 511.482 77.8073 510.014C81.7145 508.546 85.9259 508.347 89.9342 509.44C87.3082 512.911 83.8961 515.566 80.0391 517.14Z" fill="#2F2E41"/>
</svg>
