<svg width="37" height="34" viewBox="0 0 37 34" fill="none" xmlns="http://www.w3.org/2000/svg">
<path d="M35.9727 31.0478L24.5601 20.3961C26.3311 18.2592 27.2891 15.6465 27.2891 12.8984C27.2891 9.60898 25.9136 6.52461 23.4263 4.19902C20.939 1.87344 17.6255 0.59375 14.1055 0.59375C10.5854 0.59375 7.27197 1.87754 4.78467 4.19902C2.29297 6.52051 0.921875 9.60898 0.921875 12.8984C0.921875 16.1838 2.29736 19.2764 4.78467 21.5978C7.27197 23.9234 10.5811 25.2031 14.1055 25.2031C17.0498 25.2031 19.8447 24.309 22.1343 22.6602L33.5469 33.3078C33.5803 33.3391 33.6201 33.3639 33.6638 33.3808C33.7075 33.3977 33.7544 33.4064 33.8018 33.4064C33.8491 33.4064 33.896 33.3977 33.9397 33.3808C33.9834 33.3639 34.0232 33.3391 34.0566 33.3078L35.9727 31.5236C36.0061 31.4924 36.0327 31.4553 36.0508 31.4145C36.0689 31.3737 36.0783 31.3299 36.0783 31.2857C36.0783 31.2416 36.0689 31.1978 36.0508 31.157C36.0327 31.1162 36.0061 31.0791 35.9727 31.0478ZM21.0664 19.3953C19.2031 21.1303 16.7334 22.0859 14.1055 22.0859C11.4775 22.0859 9.00781 21.1303 7.14453 19.3953C5.28564 17.6562 4.26172 15.3512 4.26172 12.8984C4.26172 10.4457 5.28564 8.13652 7.14453 6.40156C9.00781 4.6666 11.4775 3.71094 14.1055 3.71094C16.7334 3.71094 19.2075 4.6625 21.0664 6.40156C22.9253 8.14062 23.9492 10.4457 23.9492 12.8984C23.9492 15.3512 22.9253 17.6604 21.0664 19.3953Z" fill="#DB3C09"/>
</svg>
