<svg width="673" height="624" viewBox="0 0 673 624" fill="none" xmlns="http://www.w3.org/2000/svg">
<ellipse cx="309" cy="312" rx="309" ry="312" fill="#F4A57D" fill-opacity="0.41"/>
<g clip-path="url(#clip0)">
<path d="M344.999 495.615L126.481 494.564L104.769 444.355L181.545 438.861L168.164 383.811L320.018 364.406L174.605 314.569L187.45 311.56L421.271 349.168L408.394 435.078L389.989 482.291L344.999 495.615Z" fill="#FF7245"/>
<path d="M129.833 473.536C129.833 473.536 143.24 471.421 151.284 480.761C151.284 480.761 145.385 485.343 132.693 478.999L129.833 473.536Z" fill="#FF7245"/>
<path d="M128.429 473.328C128.429 473.328 119.874 483.707 124.087 495.263C124.087 495.263 131.059 492.512 131.819 478.501L128.429 473.328Z" fill="#FF7245"/>
<path d="M120.742 456.264C120.742 456.264 126.105 446.565 147.556 460.141C147.556 460.141 144.696 466.662 135.221 466.134C125.747 465.605 123.245 461.375 120.742 456.264Z" fill="#FF7245"/>
<path d="M119.357 455.565C119.357 455.565 108.229 454.307 107.15 479.42C107.15 479.42 114.205 480.862 119.216 472.919C124.228 464.975 122.172 460.519 119.357 455.565Z" fill="#FF7245"/>
<path d="M112.877 435.531C112.877 435.531 119.133 418.436 141.835 430.596C141.835 430.596 136.651 446.281 115.201 441.347L112.877 435.531Z" fill="#FF7245"/>
<path d="M105.905 409.976C105.905 409.976 117.703 392.705 138.618 408.717C138.618 408.717 131.289 424.931 107.693 416.119L105.905 409.976Z" fill="#FF7245"/>
<path d="M103.403 385.656C103.403 385.656 117.167 369.788 137.877 385.656C137.877 385.656 124.828 399.578 103.403 389.709V385.656Z" fill="#FF7245"/>
<path d="M101.258 362.033C101.258 362.033 115.201 345.467 135.043 361.152C135.043 361.152 119.312 375.78 101.258 365.911V362.033Z" fill="#FF7245"/>
<path d="M102.509 341.061C102.509 341.061 117.192 319.736 135.758 334.188C135.758 334.188 120.027 352.516 102.509 345.114V341.061Z" fill="#FF7245"/>
<path d="M105.905 316.564C105.905 316.564 121.457 295.415 139.512 311.629C139.512 311.629 121.1 329.958 105.905 320.441V316.564Z" fill="#FF7245"/>
<path d="M111.089 294.666C111.089 294.666 129.501 274.789 145.564 282.707C145.564 282.707 126.379 303.818 110.285 299.941L111.089 294.666Z" fill="#FF7245"/>
<path d="M117.524 273.908C117.524 273.908 138.771 249.562 151.131 257.694C151.131 257.694 135.477 276.577 116.018 278.465L117.524 273.908Z" fill="#FF7245"/>
<path d="M126.813 249.833C126.813 249.833 145.41 229.956 158.996 234.89C158.996 234.89 143.087 255.51 124.317 256.039L126.813 249.833Z" fill="#FF7245"/>
<path d="M135.221 227.312C135.221 227.312 155.779 208.278 164.716 211.627C164.716 211.627 149.88 232.775 134.328 231.542L135.221 227.312Z" fill="#FF7245"/>
<path d="M143.444 206.516C143.444 206.516 161.141 183.775 170.8 185.537C170.8 185.537 160.069 205.811 143.444 208.826V206.516Z" fill="#FF7245"/>
<path d="M152.369 178.475C152.369 178.475 168.011 161.047 176.463 161.084C176.463 161.084 164.116 184.373 151.724 184.159L152.369 178.475Z" fill="#FF7245"/>
<path d="M157.655 159.807L172.767 123.502C172.767 123.502 173.52 156.32 155.734 166.541L157.655 159.807Z" fill="#FF7245"/>
<path d="M163.791 119.769C163.791 119.769 166.293 89.4499 164.684 86.9825C164.684 86.9825 175.486 112.191 163.688 133.163L163.791 119.769Z" fill="#FF7245"/>
<path d="M112.289 435.128C112.289 435.128 96.6226 425.555 86.4781 448.975C86.4781 448.975 100.421 458.102 114.134 441.101L112.289 435.128Z" fill="#FF7245"/>
<path d="M105.401 409.001C105.401 409.001 86.1844 400.359 76.8635 424.812C76.8635 424.812 91.7068 434.883 107.15 415.182L105.401 409.001Z" fill="#FF7245"/>
<path d="M102.509 387.109C102.509 387.109 88.7446 371.242 68.0343 387.109C68.0343 387.109 81.0836 401.032 102.509 391.163V387.109Z" fill="#FF7245"/>
<path d="M100.785 362.033C100.785 362.033 86.842 345.467 67 361.152C67 361.152 82.7306 375.78 100.785 365.911V362.033Z" fill="#FF7245"/>
<path d="M102.509 341.665C102.509 341.665 92.7282 317.779 71.4689 328.051C71.4689 328.051 82.9604 349.231 101.641 345.631L102.509 341.665Z" fill="#FF7245"/>
<path d="M107.137 316.444C107.137 316.444 97.4143 292.142 75.8549 303.409C75.8549 303.409 89.0574 325.684 106.18 320.196L107.137 316.444Z" fill="#FF7245"/>
<path d="M113.164 294.786C113.164 294.786 109.333 268.143 91.4578 265.757C91.4578 265.757 95.25 293.854 110.757 299.588L113.164 294.786Z" fill="#FF7245"/>
<path d="M117.978 273.958C117.978 273.958 116.484 241.858 101.704 240.738C101.704 240.738 102.202 265.102 116.311 278.503L117.978 273.958Z" fill="#FF7245"/>
<path d="M128.346 248.933C128.346 248.933 123.941 222.239 109.832 218.979C109.832 218.979 111.581 244.829 126.948 255.485L128.346 248.933Z" fill="#FF7245"/>
<path d="M136.894 227.532C136.894 227.532 136.747 199.725 128.129 195.64C128.129 195.64 122.785 220.817 134.398 231.082L136.894 227.532Z" fill="#FF7245"/>
<path d="M144.102 206.201C144.102 206.201 142.895 177.569 133.97 173.534C133.97 173.534 130.919 196.193 142.768 208.077L144.102 206.201Z" fill="#FF7245"/>
<path d="M153.614 180.76C153.614 180.76 153.563 157.471 147.192 152.008C147.192 152.008 140.859 177.519 150.288 185.443L153.614 180.76Z" fill="#FF7245"/>
<path d="M156.908 158.661L150.709 119.901C150.709 119.901 142.289 151.662 157.202 165.66L156.908 158.661Z" fill="#FF7245"/>
<path d="M158.115 120.134C158.115 120.134 142.206 94.0761 142.531 91.1808C142.531 91.1808 144.223 118.491 164.238 132.093L158.115 120.134Z" fill="#FF7245"/>
<path d="M160.643 115.91C160.643 115.91 144.364 72.43 137 68.9102C137 68.9102 160.256 81.5401 162 114.668L160.643 115.91Z" fill="#FF7245"/>
<path d="M151.648 184.379L150.62 184.071C163.293 143.328 166.453 117.352 159.526 110.838L160.26 110.07C167.608 116.943 164.627 142.636 151.648 184.379Z" fill="#444053"/>
<path d="M116.752 279.774L115.233 279.239C116.58 275.507 118.029 271.718 119.548 267.985C132.776 235.482 144.038 205.245 151.258 182.032L152.58 181.402C145.347 204.659 134.283 236.055 121.042 268.602C119.529 272.265 118.086 276.036 116.752 279.774Z" fill="#444053"/>
<path d="M148.724 504.025C148.52 503.804 127.982 481 113.662 442.071C105.272 419.279 100.602 395.319 99.8275 371.084C98.8444 340.79 105.292 306.965 116.337 276.237L117.537 277.622C92.7411 346.587 102.592 405.684 115.66 441.271C129.827 479.848 150.135 502.401 150.333 502.627L148.724 504.025Z" fill="#444053"/>
<path d="M469.67 455.609C469.67 455.609 455.197 473.025 466.688 499.354L351.135 548.764L340.045 551.055L334.938 529.025L338.353 501.224V486.029L469.67 455.609Z" fill="#D5D6DB"/>
<path d="M104.769 444.355L264.705 415.61L476.628 448.893L344.999 495.615L104.769 444.355Z" fill="#FF7245"/>
<path d="M104.769 444.355L264.705 415.61L476.628 448.893L344.999 495.615L104.769 444.355Z" fill="#FF7245"/>
<path d="M104.769 444.349C104.769 444.349 89.8107 472.289 107.048 498.095L344.22 548.764C344.22 548.764 329.499 526.508 344.98 495.616L104.769 444.349Z" fill="#FF7245"/>
<path opacity="0.1" d="M104.769 444.349C104.769 444.349 89.8107 472.289 107.048 498.095L344.22 548.764C344.22 548.764 329.499 526.508 344.98 495.616L104.769 444.349Z" fill="#463131"/>
<path opacity="0.1" d="M111.836 454.036C111.836 454.036 103.288 474.48 111.836 487.71V454.036Z" fill="#463131"/>
<path d="M344.22 548.764L476.628 493.06C476.628 493.06 484.034 494.633 479.246 499.984C474.458 505.334 346.774 554.114 346.774 554.114L107.048 498.095L344.22 548.764Z" fill="#FF7245"/>
<path opacity="0.1" d="M344.22 548.764L476.628 493.06C476.628 493.06 484.034 494.633 479.246 499.984C474.458 505.334 346.774 554.114 346.774 554.114L107.048 498.095L344.22 548.764Z" fill="#463131"/>
<path opacity="0.1" d="M333.367 501.242C333.367 501.242 320.599 516.349 333.367 539.008V501.242Z" fill="#463131"/>
<path opacity="0.1" d="M395.184 500.987L337.912 519.825L338.114 520.422L395.386 501.584L395.184 500.987Z" fill="#463131"/>
<path opacity="0.1" d="M406.655 499.112L337.894 524.891L338.12 525.48L406.882 499.701L406.655 499.112Z" fill="#463131"/>
<path opacity="0.1" d="M417.19 499.022L338.277 530.867L338.519 531.449L417.432 499.604L417.19 499.022Z" fill="#463131"/>
<path opacity="0.1" d="M428.646 496.295L339.198 536.132L339.461 536.705L428.909 496.869L428.646 496.295Z" fill="#463131"/>
<path opacity="0.1" d="M438.271 496.308L339.906 538.697L340.162 539.274L438.526 496.885L438.271 496.308Z" fill="#463131"/>
<path opacity="0.1" d="M459.322 492.783L341.39 543.002L341.643 543.58L459.576 493.361L459.322 492.783Z" fill="#463131"/>
<path opacity="0.3" d="M164.187 447.427L276.548 424.138L344.999 437.041L252.927 466.31L164.187 447.427Z" fill="white"/>
<path d="M476.629 448.893C476.629 448.893 482.438 451.203 479.029 454.772C475.62 458.341 344.98 495.615 344.98 495.615L476.629 448.893Z" fill="#FF7245"/>
<path d="M533.058 395.072C533.058 395.072 518.592 412.481 530.083 438.816L414.529 488.226L403.44 490.53L398.333 468.5L401.799 440.705V425.492L533.058 395.072Z" fill="#D5D6DB"/>
<path d="M168.164 383.811L328.094 355.072L540.023 388.356L408.394 435.078L168.164 383.811Z" fill="#3A3768"/>
<path d="M168.138 383.811C168.138 383.811 153.174 411.751 170.411 437.558L407.583 488.226C407.583 488.226 392.868 465.951 408.369 435.071L168.138 383.811Z" fill="#3A3768"/>
<path opacity="0.1" d="M168.138 383.811C168.138 383.811 153.174 411.751 170.411 437.558L407.583 488.226C407.583 488.226 392.868 465.951 408.369 435.071L333.367 419.065L168.138 383.811Z" fill="#463131"/>
<path opacity="0.1" d="M175.225 393.498C175.225 393.498 166.683 413.935 175.225 427.172V393.498Z" fill="#463131"/>
<path d="M407.609 488.226L540.023 432.522C540.023 432.522 547.423 434.096 542.635 439.446C537.846 444.796 410.163 493.576 410.163 493.576L170.437 437.558L407.609 488.226Z" fill="#3A3768"/>
<path opacity="0.1" d="M407.609 488.226L540.023 432.522C540.023 432.522 547.423 434.096 542.635 439.446C537.846 444.796 410.163 493.576 410.163 493.576L170.437 437.558L407.609 488.226Z" fill="#463131"/>
<path opacity="0.1" d="M396.756 440.705C396.756 440.705 383.988 455.811 396.756 478.47V440.705Z" fill="#463131"/>
<path opacity="0.1" d="M458.577 440.456L401.305 459.294L401.507 459.891L458.779 441.053L458.577 440.456Z" fill="#463131"/>
<path opacity="0.1" d="M470.056 438.578L401.295 464.357L401.522 464.946L470.283 439.167L470.056 438.578Z" fill="#463131"/>
<path opacity="0.1" d="M480.582 438.479L401.669 470.324L401.911 470.907L480.824 439.062L480.582 438.479Z" fill="#463131"/>
<path opacity="0.1" d="M492.046 435.754L402.598 475.59L402.861 476.164L492.308 436.327L492.046 435.754Z" fill="#463131"/>
<path opacity="0.1" d="M501.661 435.759L403.297 478.147L403.553 478.724L501.917 436.335L501.661 435.759Z" fill="#463131"/>
<path opacity="0.1" d="M522.718 432.234L404.785 482.452L405.038 483.03L522.971 432.812L522.718 432.234Z" fill="#463131"/>
<path opacity="0.45" d="M227.581 386.889L339.943 363.601L408.394 376.504L316.322 405.772L227.581 386.889Z" fill="white"/>
<path d="M540.023 388.356C540.023 388.356 545.827 390.666 542.424 394.228C539.021 397.791 408.394 435.071 408.394 435.071L540.023 388.356Z" fill="#3A3768"/>
<path d="M539.059 325.816C539.059 325.816 524.586 357.08 536.078 383.408L420.524 418.971L409.46 421.281L404.353 399.251L407.769 371.449V356.236L539.059 325.816Z" fill="#D5D6DB"/>
<path d="M174.184 314.562L334.121 285.817L546.05 319.101L414.415 365.823L174.184 314.562Z" fill="#FF7245"/>
<path d="M174.184 314.556C174.184 314.556 159.2 342.496 176.438 368.302L413.61 418.971C413.61 418.971 398.888 396.696 414.389 365.822L174.184 314.556Z" fill="#FF7245"/>
<path opacity="0.1" d="M174.184 314.556C174.184 314.556 159.2 342.496 176.438 368.302L413.61 418.971C413.61 418.971 398.888 396.696 414.389 365.822L174.184 314.556Z" fill="#463131"/>
<path opacity="0.1" d="M181.251 324.243C181.251 324.243 172.703 344.687 181.251 357.917V324.243Z" fill="#463131"/>
<path d="M413.636 418.971L546.044 377.114C546.044 377.114 553.449 378.688 548.661 384.038C543.873 389.388 416.189 424.321 416.189 424.321L176.463 368.302L413.636 418.971Z" fill="#FF7245"/>
<path opacity="0.1" d="M413.636 418.971L546.044 377.114C546.044 377.114 553.449 378.688 548.661 384.038C543.873 389.388 416.189 424.321 416.189 424.321L176.463 368.302L413.636 418.971Z" fill="#463131"/>
<path opacity="0.1" d="M402.783 371.449C402.783 371.449 390.014 386.556 402.783 409.215V371.449Z" fill="#463131"/>
<path opacity="0.1" d="M464.606 371.2L407.334 390.038L407.536 390.635L464.808 371.797L464.606 371.2Z" fill="#463131"/>
<path opacity="0.1" d="M476.081 369.325L407.319 395.104L407.546 395.692L476.307 369.913L476.081 369.325Z" fill="#463131"/>
<path opacity="0.1" d="M486.6 369.229L407.688 401.074L407.93 401.656L486.842 369.812L486.6 369.229Z" fill="#463131"/>
<path opacity="0.1" d="M498.073 366.498L408.625 406.334L408.888 406.908L498.336 367.071L498.073 366.498Z" fill="#463131"/>
<path opacity="0.1" d="M507.691 366.509L409.327 408.898L409.583 409.474L507.947 367.086L507.691 366.509Z" fill="#463131"/>
<path opacity="0.1" d="M528.746 362.988L410.813 413.207L411.066 413.784L528.999 363.566L528.746 362.988Z" fill="#463131"/>
<path opacity="0.3" d="M233.602 317.634L345.963 294.345L414.415 307.248L322.342 336.517L233.602 317.634Z" fill="white"/>
<path d="M546.044 319.1C546.044 319.1 551.853 321.41 548.444 324.979C545.035 328.548 414.415 365.822 414.415 365.822L546.044 319.1Z" fill="#FF7245"/>
<path d="M265.178 128.033C265.178 128.033 240.918 126.592 243.753 143.372C243.753 143.372 243.184 146.337 245.91 147.684C245.91 147.684 245.955 146.425 248.4 146.859C249.273 147.007 250.16 147.049 251.043 146.985C252.234 146.905 253.365 146.445 254.267 145.676C254.267 145.676 261.092 142.894 263.748 131.892C263.748 131.892 265.714 129.494 265.663 128.877L261.552 130.601C261.552 130.601 262.95 133.516 261.852 135.939C261.852 135.939 261.718 130.708 260.926 130.828C260.766 130.828 258.8 131.841 258.8 131.841C258.8 131.841 261.207 136.921 259.387 140.609C259.387 140.609 260.077 134.353 258.047 132.206L255.161 133.868C255.161 133.868 257.977 139.111 256.068 143.391C256.068 143.391 256.559 136.826 254.555 134.271L251.937 136.285C251.937 136.285 254.587 141.453 252.971 145.003C252.971 145.003 252.761 137.361 251.375 136.782C251.375 136.782 249.083 138.771 248.739 139.59C248.739 139.59 250.552 143.366 249.422 145.324C249.422 145.324 248.739 140.232 248.145 140.206C248.145 140.206 245.866 143.58 245.63 145.871C245.74 143.735 246.416 141.665 247.589 139.867C246.276 140.112 245.064 140.731 244.104 141.648C244.104 141.648 244.455 139.262 248.158 139.055C248.158 139.055 250.041 136.493 250.545 136.342C250.545 136.342 246.862 136.033 244.634 137.009C244.634 137.009 246.6 134.762 251.216 135.75L253.769 133.673C253.769 133.673 248.93 133.044 246.874 133.742C246.874 133.742 249.243 131.753 254.465 133.201L257.281 131.546C257.281 131.546 253.15 130.671 250.692 130.985C250.692 130.985 253.284 129.607 258.104 131.099L260.109 130.211C260.109 130.211 257.089 129.626 256.202 129.531C255.314 129.437 255.27 129.198 255.27 129.198C257.186 128.888 259.153 129.105 260.952 129.827C260.952 129.827 265.261 128.298 265.178 128.033Z" fill="#FF7245"/>
<path opacity="0.1" d="M606.476 197.005C606.476 197.005 582.217 195.564 585.051 212.344C585.051 212.344 584.483 215.309 587.209 216.656C587.209 216.656 587.254 215.397 589.699 215.831C590.572 215.976 591.459 216.018 592.342 215.957C593.521 215.872 594.641 215.412 595.534 214.648C595.534 214.648 602.365 211.866 605.014 200.864C605.014 200.864 606.981 198.466 606.93 197.849L602.831 199.573C602.831 199.573 604.229 202.488 603.131 204.911C603.131 204.911 602.997 199.68 602.212 199.8C602.052 199.8 600.08 200.813 600.08 200.813C600.08 200.813 602.486 205.893 600.673 209.581C600.673 209.581 601.363 203.325 599.326 201.178L596.441 202.84C596.441 202.84 599.256 208.083 597.347 212.363C597.347 212.363 597.839 205.798 595.834 203.243L593.223 205.257C593.223 205.257 595.866 210.425 594.251 213.975C594.251 213.975 594.04 206.333 592.655 205.754C592.655 205.754 590.369 207.743 590.018 208.562C590.018 208.562 591.831 212.338 590.708 214.296C590.708 214.296 590.018 209.204 589.431 209.178C589.431 209.178 587.152 212.552 586.915 214.843C587.026 212.706 587.704 210.636 588.882 208.838C587.566 209.084 586.353 209.703 585.39 210.62C585.39 210.62 585.747 208.234 589.443 208.027C589.443 208.027 591.327 205.465 591.831 205.307C591.831 205.307 588.154 205.005 585.919 205.981C585.919 205.981 587.886 203.734 592.502 204.722L595.055 202.645C595.055 202.645 590.21 202.016 588.16 202.714C588.16 202.714 590.522 200.725 595.751 202.173L598.56 200.518C598.56 200.518 594.43 199.643 591.972 199.957C591.972 199.957 594.564 198.579 599.384 200.071L601.395 199.183C601.395 199.183 598.369 198.598 597.481 198.503C596.594 198.409 596.549 198.17 596.549 198.17C598.466 197.855 600.433 198.073 602.231 198.799C602.231 198.799 606.553 197.27 606.476 197.005Z" fill="#FF7245"/>
<path opacity="0.1" d="M306.037 231.699C306.037 231.699 295.464 210.091 282.007 220.741C282.007 220.741 279.102 221.698 279.242 224.7C279.242 224.7 280.359 224.127 281.157 226.443C281.456 227.262 281.85 228.044 282.332 228.772C282.985 229.76 283.947 230.511 285.071 230.912C285.071 230.912 290.861 235.432 301.9 232.347C301.9 232.347 304.983 232.87 305.488 232.505L301.964 229.817C301.964 229.817 300.048 232.442 297.38 232.675C297.38 232.675 301.951 230.012 301.459 229.395C301.357 229.27 299.544 228.055 299.544 228.055C299.544 228.055 296.218 232.605 292.068 232.838C292.068 232.838 297.942 230.384 298.848 227.583L295.975 225.908C295.975 225.908 292.7 230.893 287.982 231.334C287.982 231.334 294.034 228.558 295.318 225.587L292.266 224.329C292.266 224.329 288.978 229.125 285.045 229.471C285.045 229.471 291.711 225.562 291.545 224.083C291.545 224.083 288.665 223.089 287.772 223.183C287.772 223.183 285.333 226.576 283.034 226.576C283.034 226.576 287.203 223.498 286.948 223C286.948 223 282.849 222.686 280.691 223.63C282.636 222.677 284.8 222.243 286.967 222.371C286.107 221.36 284.967 220.619 283.686 220.237C283.686 220.237 285.971 219.381 287.957 222.459C287.957 222.459 291.149 222.831 291.525 223.189C291.525 223.189 290 219.879 288.052 218.437C288.052 218.437 291.002 219.023 292.349 223.473L295.445 224.681C295.445 224.681 293.664 220.2 292.023 218.783C292.023 218.783 294.935 219.847 296.205 225.078L299.04 226.689C299.04 226.689 297.807 222.705 296.326 220.747C296.326 220.747 298.81 222.308 299.838 227.18L301.606 228.476C301.606 228.476 300.648 225.587 300.329 224.782C300.01 223.976 300.17 223.812 300.17 223.812C301.384 225.307 302.153 227.105 302.391 229.005C302.391 229.005 305.807 231.888 306.037 231.699Z" fill="#FF7245"/>
<path opacity="0.1" d="M551.049 166.478C551.049 166.478 540.483 144.87 527.019 155.52C527.019 155.52 524.12 156.477 524.255 159.479C524.255 159.479 525.378 158.913 526.17 161.223C526.467 162.045 526.864 162.829 527.351 163.558C528.002 164.543 528.961 165.293 530.083 165.692C530.083 165.692 535.88 170.211 546.912 167.133C546.912 167.133 549.996 167.649 550.506 167.284L547.001 164.59C547.001 164.59 545.086 167.221 542.424 167.454C542.424 167.454 546.989 164.785 546.497 164.168C546.395 164.043 544.582 162.828 544.582 162.828C544.582 162.828 541.262 167.378 537.106 167.611C537.106 167.611 542.986 165.157 543.892 162.362L540.975 160.7C540.975 160.7 537.706 165.679 532.982 166.126C532.982 166.126 539.034 163.344 540.323 160.373L537.265 159.114C537.265 159.114 533.978 163.917 530.051 164.257C530.051 164.257 536.71 160.348 536.544 158.875C536.544 158.875 533.671 157.874 532.777 157.975C532.777 157.975 530.339 161.361 528.034 161.361C528.034 161.361 532.209 158.283 531.954 157.786C531.954 157.786 527.855 157.471 525.691 158.415C527.635 157.462 529.799 157.028 531.967 157.157C531.11 156.145 529.971 155.403 528.692 155.023C528.692 155.023 530.977 154.167 532.963 157.245C532.963 157.245 536.155 157.622 536.531 157.981C536.531 157.981 535.005 154.664 533.052 153.223C533.052 153.223 536.001 153.814 537.348 158.29L540.451 159.498C540.451 159.498 538.67 155.01 537.029 153.594C537.029 153.594 539.94 154.658 541.205 159.888L544.045 161.5C544.045 161.5 542.807 157.522 541.326 155.558C541.326 155.558 543.816 157.119 544.837 161.991L546.606 163.287C546.606 163.287 545.654 160.398 545.329 159.593C545.003 158.787 545.169 158.629 545.169 158.629C546.38 160.125 547.147 161.923 547.384 163.822C547.384 163.822 550.851 166.68 551.049 166.478Z" fill="#FF7245"/>
<path opacity="0.1" d="M584.815 273.36C584.815 273.36 574.249 251.746 560.766 262.396C560.766 262.396 557.867 263.353 558.001 266.355C558.001 266.355 559.125 265.789 559.916 268.099C560.212 268.92 560.606 269.704 561.091 270.434C561.742 271.419 562.701 272.168 563.824 272.567C563.824 272.567 569.62 277.093 580.659 274.009C580.659 274.009 583.736 274.531 584.247 274.16L580.723 271.472C580.723 271.472 578.807 274.103 576.139 274.336C576.139 274.336 580.703 271.667 580.212 271.051C580.11 270.925 578.297 269.71 578.297 269.71C578.297 269.71 574.977 274.261 570.821 274.5C570.821 274.5 576.701 272.039 577.607 269.244L574.728 267.57C574.728 267.57 571.459 272.555 566.735 272.995C566.735 272.995 572.787 270.213 574.077 267.243L571.019 265.984C571.019 265.984 567.731 270.78 563.804 271.126C563.804 271.126 570.47 267.217 570.304 265.738C570.304 265.738 567.424 264.737 566.531 264.838C566.531 264.838 564.092 268.224 561.787 268.224C561.787 268.224 565.962 265.147 565.707 264.649C565.707 264.649 561.608 264.335 559.444 265.279C561.391 264.326 563.557 263.892 565.726 264.02C564.868 263.007 563.727 262.265 562.445 261.886C562.445 261.886 564.73 261.024 566.716 264.108C566.716 264.108 569.908 264.479 570.284 264.838C570.284 264.838 568.759 261.527 566.811 260.08C566.811 260.08 569.761 260.671 571.108 265.147L574.204 266.355C574.204 266.355 572.423 261.867 570.782 260.457C570.782 260.457 573.694 261.515 574.958 266.752L577.799 268.357C577.799 268.357 576.56 264.379 575.079 262.415C575.079 262.415 577.569 263.976 578.597 268.854L580.365 270.113C580.365 270.113 579.407 267.224 579.088 266.418C578.769 265.612 578.929 265.455 578.929 265.455C580.143 266.949 580.91 268.747 581.144 270.648C581.144 270.648 584.617 273.549 584.815 273.36Z" fill="#FF7245"/>
<path opacity="0.1" d="M195.929 554.567C204.035 554.567 210.606 553.843 210.606 552.949C210.606 552.056 204.035 551.332 195.929 551.332C187.823 551.332 181.251 552.056 181.251 552.949C181.251 553.843 187.823 554.567 195.929 554.567Z" fill="#FF7245"/>
<path opacity="0.1" d="M99.7125 527.074C107.819 527.074 114.39 526.35 114.39 525.456C114.39 524.563 107.819 523.839 99.7125 523.839C91.6065 523.839 85.0353 524.563 85.0353 525.456C85.0353 526.35 91.6065 527.074 99.7125 527.074Z" fill="#FF7245"/>
<path opacity="0.1" d="M269.27 572.827C277.376 572.827 283.947 572.102 283.947 571.209C283.947 570.316 277.376 569.591 269.27 569.591C261.164 569.591 254.593 570.316 254.593 571.209C254.593 572.102 261.164 572.827 269.27 572.827Z" fill="#FF7245"/>
<path opacity="0.1" d="M522.971 525.204C531.077 525.204 537.648 524.48 537.648 523.587C537.648 522.693 531.077 521.969 522.971 521.969C514.865 521.969 508.294 522.693 508.294 523.587C508.294 524.48 514.865 525.204 522.971 525.204Z" fill="#FF7245"/>
<path opacity="0.1" d="M443.961 563.486C453.548 563.486 461.319 562.17 461.319 560.547C461.319 558.923 453.548 557.607 443.961 557.607C434.374 557.607 426.602 558.923 426.602 560.547C426.602 562.17 434.374 563.486 443.961 563.486Z" fill="#FF7245"/>
<path d="M451.705 531.001C451.705 531.001 427.534 543.313 440.022 557.815C440.022 557.815 441.196 560.962 444.593 560.742C444.593 560.742 443.916 559.521 446.508 558.545C447.43 558.193 448.307 557.735 449.119 557.179C450.217 556.431 451.037 555.35 451.456 554.101C451.456 554.101 456.397 547.58 452.567 535.514C452.567 535.514 453.064 532.103 452.63 531.549L449.694 535.521C449.694 535.521 452.726 537.529 453.077 540.481C453.077 540.481 449.885 535.527 449.247 536.075C449.106 536.188 447.791 538.246 447.791 538.246C447.791 538.246 453.052 541.765 453.441 546.334C453.441 546.334 450.479 539.933 447.28 539.02L445.448 542.243C445.448 542.243 451.194 545.692 451.832 550.879C451.832 550.879 448.493 544.301 445.084 542.973L443.737 546.378C443.737 546.378 449.279 549.853 449.789 554.17C449.789 554.17 445.154 546.951 443.488 547.178C443.488 547.178 442.441 550.375 442.582 551.363C442.582 551.363 446.495 553.944 446.565 556.48C446.565 556.48 442.952 551.98 442.396 552.276C442.396 552.276 442.167 556.801 443.277 559.155C443.277 559.155 441.362 555.794 441.675 552.276C440.555 553.252 439.75 554.53 439.358 555.952C439.358 555.952 438.317 553.465 441.745 551.174C441.745 551.174 442.071 547.656 442.467 547.222C442.467 547.222 438.757 549.009 437.181 551.2C437.181 551.2 437.762 547.933 442.792 546.309L444.069 542.86C444.069 542.86 439.038 544.962 437.487 546.813C437.487 546.813 438.604 543.571 444.465 542.016L446.201 538.869C446.201 538.869 441.733 540.355 439.549 542.016C439.549 542.016 441.241 539.228 446.738 537.944L448.149 535.961C448.149 535.961 444.905 537.101 443.999 537.51C443.092 537.919 442.914 537.717 442.914 537.717C444.571 536.335 446.584 535.433 448.73 535.112C448.73 535.112 451.928 531.215 451.705 531.001Z" fill="#FF7245"/>
<path d="M523.444 298.474C519.269 287.29 496.285 286.238 486.313 289.09C479.227 291.123 464.288 293.414 456.308 294.566L455.791 294.081C456.825 293.779 456.85 293.036 456.723 291.935C456.648 290.483 456.67 289.028 456.787 287.579C461.677 289.077 466.031 285.533 466.031 285.533C471.777 283.016 470.232 272.24 471.33 269.294C472.153 267.091 473.041 254.113 473.436 247.642H473.519L473.564 245.471C473.622 244.533 473.647 243.985 473.647 243.985C473.647 243.985 474.209 228.162 475.307 224.958C476.329 222.012 477.158 207.171 477.286 204.816C477.286 204.615 477.286 204.508 477.286 204.508L477.203 203.136C477.261 202.135 477.286 201.021 477.28 199.85C477.28 194.469 476.712 187.69 476.641 186.595C476.641 186.437 476.641 186.249 476.641 186.022C476.686 183.725 476.392 172.219 466.465 167.869C462.807 166.258 458.408 164.338 454.15 162.469C453.052 153.122 450.543 143.826 450.76 134.409C450.76 132.993 450.888 131.577 451.028 130.167C451.028 130.576 450.983 130.992 450.977 131.426C450.977 132.339 450.977 133.258 450.977 134.17C451.354 122.394 455.867 110.554 455.446 99.0297C455.408 100.156 455.325 101.289 455.216 102.422C455.436 98.5241 455.023 94.6163 453.99 90.8472C453.607 89.5191 453.09 88.147 451.986 87.2595C450.942 86.5447 449.744 86.0773 448.487 85.8936C445.466 85.1313 442.397 84.5677 439.3 84.2068C438.83 82.7866 438.131 81.45 437.232 80.2477C430.758 71.4862 421.169 63.2533 409.831 61.3651C404.143 60.4209 397.599 61.2077 393.73 65.2171C393.326 65.5694 392.946 65.9479 392.594 66.3501C390.512 68.7985 389.618 72.0149 387.486 74.457C387.346 74.6207 387.186 74.7718 387.033 74.9291C382.858 78.6112 376.352 79.3791 371.711 82.6836C370.893 83.2768 370.126 83.9357 369.419 84.6537C367.549 86.4808 365.872 88.4906 364.414 90.6521C362.326 93.5474 360.181 96.5623 359.517 100.018C358.183 106.941 362.965 113.506 363.852 120.474C365.831 136.065 348.332 149.899 351.645 165.283C352.529 169.062 354.482 172.516 357.276 175.246C350.452 181.339 344.642 187.249 344.642 187.249V187.602H343.563L343.672 188.861H343.563L344.157 195.69L343.563 205.635C343.563 205.635 343.563 205.742 343.563 205.943V205.994V206.264C343.563 206.264 343.563 206.371 343.563 206.573H343.601C343.799 210.217 344.584 223.321 345.517 226.085C346.615 229.288 347.17 245.112 347.17 245.112C347.17 245.112 348.383 267.475 349.494 270.434C350.605 273.392 349.028 284.136 354.793 286.673C356.479 287.948 358.476 288.764 360.583 289.039C360.29 291.393 360.475 293.099 361.426 293.634C361.833 293.87 362.294 294 362.767 294.012C362.375 294.584 362.028 295.183 361.726 295.806C359.438 295.57 357.189 295.048 355.035 294.251C348.843 291.733 328.292 286.068 322.323 290.053C316.354 294.037 301.989 297.65 308.622 313.688C315.255 329.725 318.345 330.128 318.345 330.128C320.387 331.589 322.178 333.364 323.651 335.384C325.643 338.336 344.201 345.089 348.843 345.089C350.815 345.059 352.788 345.156 354.748 345.379C354.748 345.379 349.711 349.734 350.381 352.265C351.052 354.795 348.849 375.05 348.849 375.05C348.849 375.05 353.956 380.123 356.14 373.47L356.216 373.571C356.625 374.118 358.834 376.592 362.99 373.47C364.691 372.198 366.498 371.069 368.391 370.096L388.514 367.289C390.612 367.16 392.716 367.145 394.815 367.245C398.007 367.503 401.142 365.64 403.115 364.199C407.284 365.76 411.97 367.465 414.198 368.088C418.718 369.347 439.492 374.842 444.35 373.124C445.36 372.728 446.258 372.097 446.968 371.286L451.603 371.431L449.432 371.859C449.432 371.859 453.658 371.928 459.404 372.003L459.161 372.142L466.369 372.079C476.916 372.173 488.765 372.205 490.323 371.859C492.761 371.324 505.434 371.701 509.169 371.859H510.209C510.209 371.859 524.133 369.121 518.388 355.192C513.97 344.491 500.391 341.382 494.364 340.526C496.062 340.192 497.524 339.934 498.494 339.783C502.702 339.154 510.873 335.377 511.537 334.087C512.201 332.797 519.051 329.052 520.82 326.918C522.588 324.784 527.638 309.659 523.444 298.474ZM408.113 329.776L407.43 329.996L406.971 330.147L406.09 331.003C405.387 330.537 404.634 330.046 403.849 329.543C405.234 329.624 406.658 329.706 408.113 329.776Z" fill="url(#paint0_linear)"/>
<path d="M448.819 263.409C448.819 263.409 458.587 288.586 464.141 286.068C469.695 283.551 468.189 272.851 469.248 269.917C470.308 266.984 471.483 244.741 471.483 244.741C471.483 244.741 472.019 229.005 473.079 225.82C474.062 222.893 474.86 208.133 474.994 205.811C474.994 205.609 474.994 205.502 474.994 205.502L473.941 187.249L467.978 185.783L454.15 190.818L452.234 201.6L451.488 205.811L451.168 207.605L448.819 263.409Z" fill="#BE746F"/>
<path opacity="0.1" d="M452.037 259.192C452.037 259.192 461.358 266.714 464.167 267.375C466.976 268.036 468.699 273.902 468.699 273.902" fill="#463131"/>
<path d="M372.432 264.511C372.432 264.511 362.664 289.688 357.11 287.17C351.556 284.652 353.063 273.952 352.003 271.019C350.943 268.086 349.768 245.842 349.768 245.842C349.768 245.842 349.232 230.107 348.172 226.922C347.189 223.995 346.391 209.235 346.257 206.912C346.257 206.711 346.257 206.604 346.257 206.604L347.317 188.351L353.28 186.884L367.108 191.92L369.023 202.702L369.77 206.912L370.089 208.706L372.432 264.511Z" fill="#BE746F"/>
<path d="M436.038 129.777H414.236V163.281H436.038V129.777Z" fill="#3E373A"/>
<path opacity="0.1" d="M436.038 129.777H414.236V163.281H436.038V129.777Z" fill="#463131"/>
<path d="M368.602 289.587C368.602 289.587 361.151 297.662 363.916 299.129C366.68 300.596 384.562 328.082 384.562 328.082C384.562 328.082 443.297 335.214 454.373 324.514C465.45 313.813 465.226 294.698 465.226 294.698C465.226 294.698 456.327 296.586 455.356 295.56C454.386 294.534 449.055 289.587 449.055 289.587C449.055 289.587 373.709 285.08 368.602 289.587Z" fill="#4B4B5B"/>
<path opacity="0.02" d="M368.602 289.587C368.602 289.587 361.151 297.662 363.916 299.129C366.68 300.596 384.562 328.082 384.562 328.082C384.562 328.082 443.297 335.214 454.373 324.514C465.45 313.813 465.226 294.698 465.226 294.698C465.226 294.698 456.327 296.586 455.356 295.56C454.386 294.534 449.055 289.587 449.055 289.587C449.055 289.587 373.709 285.08 368.602 289.587Z" fill="#463131"/>
<path d="M474.337 187.514L455.184 202.62L449.394 203.035L447.268 203.186L411.561 205.767L374.533 203.098L369.023 202.702L362 202.198L347.317 188.351C347.317 188.351 357.71 177.374 366.814 169.965C370.402 167.039 373.792 164.672 376.263 163.74L376.684 163.596C378.238 162.998 379.626 162.044 380.732 160.814C387.92 153.506 394.566 135.473 394.566 135.473C394.566 135.473 426.276 119.322 422.446 140.508C418.615 161.695 436.702 156.458 436.702 156.458L442.665 159.139L445.02 160.203L451.028 162.916L464.582 169.046C475.218 173.874 474.337 187.514 474.337 187.514Z" fill="#BE746F"/>
<path opacity="0.1" d="M410.073 152.726C425.823 152.726 438.591 140.137 438.591 124.609C438.591 109.081 425.823 96.493 410.073 96.493C394.323 96.493 381.555 109.081 381.555 124.609C381.555 140.137 394.323 152.726 410.073 152.726Z" fill="#463131"/>
<path opacity="0.1" d="M474.381 207.542H346.257C346.257 207.34 346.257 207.233 346.257 207.233L347.317 188.98C347.317 188.98 357.71 178.003 366.814 170.595L447.255 167.448L450.996 163.558L464.55 169.688C475.192 174.51 474.337 188.149 474.337 188.149C474.337 188.149 475.792 203.954 474.381 207.542Z" fill="#463131"/>
<path d="M474.381 206.912H346.257C346.257 206.711 346.257 206.604 346.257 206.604L347.317 188.351C347.317 188.351 357.71 177.374 366.814 169.965L447.255 166.818L450.996 162.928L464.55 169.059C475.192 173.88 474.337 187.52 474.337 187.52C474.337 187.52 475.792 203.325 474.381 206.912Z" fill="#E7C7CA"/>
<path opacity="0.1" d="M389.535 155.728C389.535 155.728 409.748 181.119 436.67 155.205C463.592 129.292 439.651 213.005 439.651 213.005L381.555 219.803L389.535 155.728Z" fill="#463131"/>
<path d="M389.535 156.987C389.535 156.987 409.748 182.378 436.67 156.464C463.592 130.551 439.651 214.264 439.651 214.264L381.555 221.062L389.535 156.987Z" fill="#E7C7CA"/>
<path opacity="0.1" d="M444.988 161.443L447.127 193.6L449.419 204.3L451.168 212.483C451.168 212.483 455.637 275.425 454.36 278.572C453.084 281.719 454.999 284.237 455.267 285.911C455.535 287.585 454.999 291.79 455.21 293.678C455.42 295.566 455.21 296.404 450.319 295.73C445.429 295.057 438.611 293.886 438.611 293.886C438.611 293.886 421.373 295.145 415.417 293.049C409.46 290.953 398.18 290.946 398.18 290.946C398.18 290.946 381.153 291.368 375.624 290.739C370.096 290.109 367.108 297.455 363.494 295.352C359.881 293.25 367.746 272.907 370.3 267.028C372.853 261.15 366.897 246.258 366.897 246.258L374.558 204.357L376.263 194.859V164.999L376.684 164.855C378.238 164.257 379.625 163.303 380.732 162.073L382.647 192.121L442.658 194.223V160.405" fill="#463131"/>
<path d="M444.988 160.184L447.127 192.341L449.419 203.041L451.168 211.224C451.168 211.224 455.637 274.166 454.36 277.313C453.084 280.46 454.999 282.978 455.267 284.652C455.535 286.327 454.999 290.531 455.21 292.419C455.42 294.308 455.21 295.145 450.319 294.471C445.429 293.798 438.611 292.627 438.611 292.627C438.611 292.627 421.373 293.886 415.417 291.79C409.46 289.694 398.18 289.688 398.18 289.688C398.18 289.688 381.153 290.109 375.624 289.48C370.096 288.851 367.108 296.196 363.494 294.094C359.881 291.991 367.746 271.648 370.3 265.77C372.853 259.891 366.897 244.999 366.897 244.999L374.558 203.098L376.263 193.6V163.74L376.684 163.596C378.238 162.998 379.625 162.045 380.732 160.814L382.647 190.862L442.658 192.964V159.146" fill="#E7C7CA"/>
<path opacity="0.1" d="M451.89 93.0753C451.526 91.7598 451.022 90.394 449.975 89.5128C448.975 88.805 447.82 88.3393 446.604 88.1532C443.692 87.3983 440.731 86.8389 437.742 86.479C437.315 85.0814 436.669 83.7582 435.827 82.5577C429.571 73.8465 420.314 65.6325 409.422 63.7758C403.721 62.8002 397.113 63.675 393.462 68.1062C391.457 70.542 390.595 73.771 388.571 76.1628C384.671 80.8079 377.629 81.3807 372.713 84.9747C370.089 86.8629 368.187 89.6009 366.329 92.2571C364.318 95.1335 362.249 98.1296 361.611 101.566C360.334 108.433 364.937 114.979 365.786 121.909C367.702 137.412 350.847 151.165 354.033 166.46C355.891 175.378 364.248 181.66 372.892 184.845C375.937 185.972 379.416 187.092 380.84 189.975C381.479 191.234 381.587 192.688 382.187 193.959C384.205 198.201 390.838 198.365 394.4 195.274C397.963 192.184 399.086 187.186 399.508 182.522C401.218 162.154 392.945 142.032 393.909 121.613C394.196 115.439 395.958 108.433 401.57 105.639C409.122 101.862 418.207 108.156 426.519 106.954C430.452 116.39 431.287 126.804 428.907 136.732C427.585 142.164 425.3 147.432 425.134 153.034C424.885 161.563 429.551 169.355 433.586 176.895C434.452 178.305 435.031 179.868 435.291 181.496C435.354 183.148 435.042 184.794 434.378 186.311C432.099 192.36 428.166 197.975 427.719 204.414C427.588 205.165 427.76 205.938 428.198 206.566C428.648 206.986 429.228 207.243 429.845 207.296C436.74 208.461 442.703 202.437 446.067 196.389C449.819 189.708 452.004 182.284 452.464 174.661C453.16 161.846 448.5 149.239 448.787 136.411C449.119 121.827 455.803 107.143 451.89 93.0753Z" fill="#463131"/>
<path d="M452.528 92.4459C452.164 91.1304 451.66 89.7646 450.613 88.8834C449.613 88.1756 448.458 87.7099 447.242 87.5238C444.33 86.7689 441.37 86.2095 438.381 85.8496C437.954 84.452 437.308 83.1288 436.466 81.9283C430.209 73.2171 420.952 65.0032 410.061 63.1464C404.36 62.1708 397.752 63.0457 394.1 67.4768C392.095 69.9126 391.234 73.1416 389.21 75.5334C385.309 80.1785 378.267 80.7513 373.352 84.3453C370.728 86.2335 368.825 88.9715 366.967 91.6277C364.956 94.5041 362.888 97.5002 362.249 100.937C360.973 107.804 365.576 114.35 366.425 121.28C368.34 136.782 351.486 150.535 354.671 165.83C356.529 174.749 364.886 181.031 373.53 184.216C376.576 185.342 380.055 186.463 381.479 189.345C382.117 190.604 382.226 192.058 382.826 193.33C384.843 197.572 391.476 197.736 395.039 194.645C398.601 191.555 399.725 186.557 400.146 181.893C401.857 161.525 393.583 141.402 394.547 120.984C394.834 114.809 396.596 107.804 402.208 105.009C409.761 101.233 418.845 107.527 427.157 106.325C431.091 115.761 431.926 126.175 429.545 136.103C428.224 141.534 425.938 146.803 425.772 152.405C425.523 160.933 430.19 168.725 434.225 176.266C435.09 177.676 435.669 179.239 435.929 180.867C435.993 182.519 435.681 184.164 435.016 185.682C432.737 191.731 428.805 197.345 428.358 203.784C428.227 204.536 428.398 205.308 428.836 205.937C429.286 206.356 429.867 206.614 430.484 206.667C437.379 207.831 443.341 201.808 446.706 195.759C450.457 189.078 452.643 181.654 453.103 174.032C453.799 161.216 449.138 148.609 449.425 135.782C449.757 121.198 456.442 106.513 452.528 92.4459Z" fill="#3E373A"/>
<path d="M438.426 371.135L463.752 371.934L460.119 353.417L440.717 355.236L438.426 371.135Z" fill="#C3C7D9"/>
<path d="M516.9 327.245C515.195 329.341 508.6 333.118 507.962 334.377C507.324 335.635 499.452 339.412 495.404 340.041C491.357 340.671 478.595 343.402 476.252 344.869C474.573 345.926 461.096 349.275 452.241 351.132C449.842 351.691 447.415 352.122 444.969 352.422C441.139 352.63 399.22 338.575 399.22 338.575L407.303 330.392L407.749 330.241C410.035 329.48 420.594 325.961 426.455 324.287C433.056 322.399 440.717 314.638 440.717 314.638C440.717 314.638 451.992 310.861 453.486 310.44C454.98 310.018 449.655 295.755 449.655 295.755C449.655 295.755 474.126 292.407 483.702 289.568C493.278 286.729 515.412 287.78 519.454 298.902C523.495 310.024 518.63 325.149 516.9 327.245Z" fill="#4B4B5B"/>
<path d="M405.387 362.7C405.387 362.7 400.497 367.736 395.6 367.32C390.704 366.905 373.581 368.579 373.581 368.579C370.478 369.8 367.573 371.46 364.956 373.508C360.953 376.617 358.828 374.137 358.432 373.608L358.361 373.508C356.229 380.123 351.339 375.081 351.339 375.081C351.339 375.081 353.465 354.94 352.814 352.422C352.162 349.904 357.021 345.58 357.021 345.58L362.767 344.139L377.322 340.463L398.18 347.594L405.387 362.7Z" fill="#E7C7CA"/>
<path opacity="0.1" d="M362.741 344.139L358.432 373.608L358.361 373.508C356.229 380.123 351.339 375.081 351.339 375.081C351.339 375.081 353.465 354.94 352.814 352.422C352.162 349.904 357.021 345.58 357.021 345.58L362.741 344.139Z" fill="#463131"/>
<path opacity="0.1" d="M392.862 260.312C392.862 260.312 404.136 264.089 413.929 260.312H392.862Z" fill="#463131"/>
<path opacity="0.1" d="M431.352 267.45C431.352 267.45 436.031 269.754 439.651 267.45H431.352Z" fill="#463131"/>
<path opacity="0.1" d="M431.352 272.914C431.352 272.914 439.224 273.952 440.717 271.856L431.352 272.914Z" fill="#463131"/>
<path opacity="0.1" d="M428.798 284.652C428.798 284.652 443.584 282.764 447.255 280.246L428.798 284.652Z" fill="#463131"/>
<path opacity="0.1" d="M383.681 280.246C383.681 280.246 391.981 284.86 398.154 284.652L383.681 280.246Z" fill="#463131"/>
<path opacity="0.1" d="M452.235 351.132C449.836 351.691 447.409 352.122 444.963 352.422C441.132 352.63 399.214 338.575 399.214 338.575L407.296 330.392L407.743 330.241C409.02 331.129 410.067 331.89 410.814 332.469C414.332 335.201 417.728 331.632 419.005 331.632C420.282 331.632 431.345 340.652 431.345 340.652C431.345 340.652 441.56 342.962 443.265 345.058C444.969 347.154 450.926 346.738 451.986 348.205C452.305 348.658 452.343 349.772 452.235 351.132Z" fill="#463131"/>
<path d="M373.581 296.611C373.581 296.611 363.252 297.197 357.295 294.723C351.339 292.249 331.548 286.541 325.802 290.55C320.056 294.559 306.222 298.103 312.606 314.053C318.99 330.002 321.972 330.417 321.972 330.417C323.947 331.878 325.671 333.642 327.079 335.642C328.994 338.581 346.87 345.291 351.339 345.291C355.808 345.291 363.679 345.291 374.743 352.844C385.807 360.397 395.811 361.24 395.811 361.24C395.811 361.24 409.856 366.905 414.229 368.164C418.603 369.423 438.585 374.874 443.271 373.199C447.957 371.525 450.932 361.026 450.932 361.026C450.932 361.026 453.058 351.585 451.992 350.118C450.926 348.652 444.969 349.067 443.271 346.971C441.573 344.875 431.352 342.565 431.352 342.565C431.352 342.565 420.314 333.539 419.037 333.539C417.76 333.539 414.363 337.102 410.846 334.377C403.839 329.26 396.477 324.633 388.814 320.529C380.732 316.331 373.581 296.611 373.581 296.611Z" fill="#4B4B5B"/>
<path opacity="0.1" d="M352.814 302.698C354.653 302.327 356.554 302.381 358.369 302.853C360.184 303.326 361.864 304.205 363.277 305.423C368.385 309.621 385.571 318.049 385.571 318.049" fill="#463131"/>
<path opacity="0.1" d="M480.51 302.433C480.51 302.433 457.738 305.832 453.486 310.446L480.51 302.433Z" fill="#463131"/>
<path d="M506.685 371.934H505.683C502.082 371.808 489.882 371.431 487.533 371.934C484.768 372.564 448.161 371.934 448.161 371.934L455.318 370.468C455.318 370.468 452.662 361.291 454.348 360.529C454.348 360.529 444.771 354.31 451.992 350.112C459.212 345.914 466.995 347.682 466.995 347.682L485.119 341.627L488.599 340.463C488.599 340.463 509.028 341.514 514.557 355.361C520.086 369.209 506.685 371.934 506.685 371.934Z" fill="#E7C7CA"/>
<path opacity="0.1" d="M506.685 371.934H505.683C511.627 367.1 525.072 352.384 485.12 341.659L488.599 340.495C488.599 340.495 509.028 341.546 514.557 355.393C520.086 369.24 506.685 371.934 506.685 371.934Z" fill="#463131"/>
<path d="M469.127 355.619C469.744 355.619 470.244 355.126 470.244 354.518C470.244 353.91 469.744 353.417 469.127 353.417C468.51 353.417 468.01 353.91 468.01 354.518C468.01 355.126 468.51 355.619 469.127 355.619Z" fill="#4B4B5B"/>
<path d="M462.634 357.439C463.251 357.439 463.752 356.945 463.752 356.337C463.752 355.729 463.251 355.236 462.634 355.236C462.017 355.236 461.517 355.729 461.517 356.337C461.517 356.945 462.017 357.439 462.634 357.439Z" fill="#4B4B5B"/>
<g opacity="0.1">
<path opacity="0.1" d="M431.001 123.571C431.248 116.648 429.999 109.752 427.336 103.341C419.037 104.562 409.946 98.2492 402.387 102.026C396.794 104.82 395.039 111.826 394.726 118C394.649 119.631 394.636 121.261 394.668 122.891C394.668 122.312 394.668 121.727 394.726 121.148C395.019 114.973 396.775 107.967 402.387 105.173C409.946 101.396 419.024 107.691 427.336 106.488C429.591 111.918 430.833 117.706 431.001 123.571Z" fill="#463131"/>
<path opacity="0.1" d="M366.686 122.419C366.796 121.048 366.768 119.669 366.603 118.303C365.927 112.764 362.856 107.47 362.3 102.07C361.585 108.584 365.793 114.841 366.603 121.45C366.686 121.79 366.686 122.092 366.686 122.419Z" fill="#463131"/>
<path opacity="0.1" d="M400.325 178.903C399.929 183.574 398.812 188.565 395.217 191.662C391.623 194.758 385.003 194.588 383.004 190.346C382.366 189.087 382.27 187.621 381.651 186.362C380.234 183.479 376.748 182.359 373.703 181.232C365.052 178.041 356.708 171.791 354.85 162.847C354.684 162.036 354.571 161.217 354.512 160.392C354.355 162.266 354.469 164.152 354.85 165.994C356.708 174.913 365.065 181.188 373.703 184.379C376.748 185.506 380.234 186.626 381.651 189.509C382.289 190.768 382.398 192.222 383.004 193.493C385.015 197.736 391.649 197.899 395.217 194.809C398.786 191.718 399.897 186.721 400.325 182.05C400.519 179.592 400.585 177.126 400.523 174.661C400.523 176.09 400.44 177.5 400.325 178.903Z" fill="#463131"/>
<path opacity="0.1" d="M449.636 132.798C449.636 133.711 449.636 134.617 449.636 135.524C449.994 123.816 454.348 112.046 453.92 100.584C453.588 111.184 449.879 122.022 449.636 132.798Z" fill="#463131"/>
<path opacity="0.1" d="M435.936 180.156C436.093 179.409 436.142 178.644 436.083 177.884C435.825 176.255 435.246 174.691 434.378 173.282C430.688 166.359 426.481 159.272 425.983 151.586C425.983 151.914 425.938 152.216 425.932 152.568C425.676 161.091 430.343 168.889 434.378 176.43C435.064 177.597 435.588 178.851 435.936 180.156Z" fill="#463131"/>
<path opacity="0.1" d="M453.307 171.048C452.83 178.674 450.63 186.097 446.865 192.776C443.495 198.824 437.538 204.848 430.637 203.684C430.019 203.631 429.437 203.371 428.99 202.947C428.86 202.803 428.758 202.637 428.69 202.456C428.613 202.947 428.549 203.444 428.511 203.948C428.379 204.698 428.551 205.468 428.99 206.094C429.437 206.518 430.019 206.778 430.637 206.831C437.538 207.995 443.495 201.971 446.865 195.923C450.63 189.245 452.83 181.821 453.307 174.195C453.384 172.722 453.39 171.256 453.345 169.789C453.333 170.211 453.333 170.626 453.307 171.048Z" fill="#463131"/>
</g>
<path opacity="0.1" d="M454.348 360.529C454.348 360.529 470.506 367.213 481.161 352.422" stroke="#463131" stroke-miterlimit="10"/>
<path opacity="0.1" d="M457.527 372.211C457.527 372.211 470.723 363.752 487.533 371.934" stroke="#463131" stroke-miterlimit="10"/>
<path opacity="0.1" d="M369.195 370.291C369.195 370.291 374.737 357.967 389.535 367.365" stroke="#463131" stroke-miterlimit="10"/>
<path opacity="0.1" d="M351.23 188.036L362.53 177.965C362.53 177.965 406.345 175.133 408.158 189.817C408.158 189.817 423.691 172.408 456.359 176.285L470.18 187.136L431.978 203.665L394.853 216.36L367.51 204.294L351.23 188.036Z" fill="#463131"/>
<path d="M351.23 188.666L362.53 178.595C362.53 178.595 406.345 175.762 408.158 190.447C408.158 190.447 423.691 173.037 456.359 176.914L470.18 187.765L431.978 204.294L394.853 216.989L367.51 204.923L351.23 188.666Z" fill="#D5D6DB"/>
<path opacity="0.1" d="M346.231 189.924L351.23 248.882L404.219 251.507L401.921 192.801L401.876 191.813L346.231 189.924Z" fill="#463131"/>
<path d="M346.231 188.666L351.23 247.623L404.219 250.248L401.921 191.542L401.876 190.554L346.231 188.666Z" fill="#FF7245"/>
<path opacity="0.1" d="M472.606 188.666L417.945 196.747V255.97L471.362 248.36L472.606 188.666Z" fill="#463131"/>
<path d="M472.606 187.407L417.945 195.488V254.711L471.362 247.101L472.606 187.407Z" fill="#FF7245"/>
<path opacity="0.3" d="M459.717 201.858L430.19 205.093L430.835 215.013L459.698 211.904L459.717 201.858Z" fill="white"/>
<path d="M354.103 279.195L357.11 287.17C357.11 287.17 361.579 290.947 366.469 289.058C371.36 287.17 375.624 286.232 377.75 284.394C379.876 282.556 382.858 273.323 382.858 273.323C382.858 273.323 385.839 263.252 388.814 260.734C391.789 258.217 399.667 223.529 388.814 226.922C377.961 230.314 369.661 261.785 369.661 261.785C369.661 261.785 367.746 264.089 364.982 264.303C362.217 264.517 356.682 263.881 355.616 266.191C354.55 268.501 350.911 274.582 354.103 279.195Z" fill="#BE746F"/>
<path opacity="0.1" d="M417.945 196.741C415.146 197.363 412.239 197.33 409.456 196.646C406.672 195.962 404.089 194.645 401.914 192.801L404.219 251.501C404.219 251.501 409.646 257.291 417.945 255.969V196.741Z" fill="#463131"/>
<path d="M417.945 195.482C415.146 196.104 412.239 196.071 409.456 195.387C406.672 194.703 404.089 193.386 401.914 191.542L404.219 250.242C404.219 250.242 409.646 256.032 417.945 254.711V195.482Z" fill="#FF7245"/>
<path opacity="0.1" d="M417.945 195.482C415.146 196.104 412.239 196.071 409.456 195.387C406.672 194.703 404.089 193.386 401.914 191.542L404.219 250.242C404.219 250.242 409.646 256.032 417.945 254.711V195.482Z" fill="#463131"/>
<path opacity="0.1" d="M419.222 188.867C419.222 188.867 441.458 182.164 447.255 183.108L419.222 188.867Z" fill="#463131"/>
<path opacity="0.1" d="M394.349 185.94C394.349 185.94 372.796 180.905 369.195 182.334L394.349 185.94Z" fill="#463131"/>
<path opacity="0.1" d="M433.242 189.704C433.242 189.704 448.11 184.329 453.486 186.884L433.242 189.704Z" fill="#463131"/>
<path opacity="0.1" d="M425.753 324.545C428.057 322.839 430.51 321.337 433.082 320.057C436.912 318.238 443.935 313.518 443.935 313.518" fill="#463131"/>
<path opacity="0.1" d="M369.195 260.312C369.195 260.312 359.868 267.834 357.065 268.495C354.263 269.156 352.533 275.022 352.533 275.022" fill="#463131"/>
<path d="M467.122 278.075L464.147 286.068C464.147 286.068 459.678 289.845 454.782 287.957C449.885 286.068 445.633 285.131 443.501 283.293C441.369 281.455 438.394 272.221 438.394 272.221C438.394 272.221 435.419 262.15 432.437 259.633C429.456 257.115 421.584 222.428 432.437 225.82C443.29 229.213 451.59 260.684 451.59 260.684C451.59 260.684 453.505 262.988 456.269 263.202C459.034 263.416 464.569 262.78 465.635 265.09C466.701 267.4 470.315 273.48 467.122 278.075Z" fill="#BE746F"/>
<path opacity="0.1" d="M461.906 263.372C461.906 263.372 468.003 267.236 467.978 271.856L461.906 263.372Z" fill="#463131"/>
<path d="M410.175 151.347C425.926 151.347 438.694 138.759 438.694 123.231C438.694 107.703 425.926 95.1146 410.175 95.1146C394.425 95.1146 381.657 107.703 381.657 123.231C381.657 138.759 394.425 151.347 410.175 151.347Z" fill="#BE746F"/>
<path d="M392.268 115.684C395.728 115.149 398.761 113.166 402.068 112.027C409.467 109.465 417.651 111.222 425.14 113.532C428.013 114.419 430.931 115.42 433.944 115.42C436.957 115.42 440.156 114.205 441.694 111.643C443.112 109.289 442.837 106.23 441.643 103.757C440.449 101.283 438.451 99.294 436.434 97.4183C429.794 91.2374 421.559 85.4593 412.448 86.0887C408.784 86.3468 405.279 87.6371 401.908 89.0659C397.664 90.8692 393.532 92.9206 389.535 95.209C386.465 96.9651 380.776 99.3129 379.008 102.523C374.986 109.755 386.011 116.653 392.268 115.684Z" fill="#3E373A"/>
<path opacity="0.1" d="M441.694 109C440.156 111.561 436.957 112.776 433.944 112.776C430.93 112.776 428.013 111.813 425.134 110.926C417.645 108.616 409.467 106.853 402.061 109.421C398.761 110.561 395.722 112.568 392.261 113.072C387.218 113.853 379.097 109.522 378.216 104.015C377.227 110.378 386.643 115.829 392.261 114.96C395.722 114.425 398.761 112.443 402.061 111.31C409.467 108.742 417.645 110.504 425.134 112.814C428.013 113.701 430.924 114.702 433.944 114.664C436.964 114.627 440.156 113.456 441.694 110.888C442.492 109.491 442.806 107.876 442.588 106.287C442.488 107.243 442.184 108.168 441.694 109Z" fill="#463131"/>
</g>
<defs>
<linearGradient id="paint0_linear" x1="415.985" y1="376.919" x2="415.985" y2="61" gradientUnits="userSpaceOnUse">
<stop stop-color="#808080" stop-opacity="0.25"/>
<stop offset="0.54" stop-color="#808080" stop-opacity="0.12"/>
<stop offset="1" stop-color="#808080" stop-opacity="0.1"/>
</linearGradient>
<clipPath id="clip0">
<rect width="653" height="511.82" fill="white" transform="translate(67 61)"/>
</clipPath>
</defs>
</svg>
