<svg width="158" height="164" viewBox="0 0 158 164" fill="none" xmlns="http://www.w3.org/2000/svg">
<path opacity="0.18" d="M157.95 79.2495C157.949 93.197 154.282 106.898 147.317 118.968C140.352 131.039 130.337 141.052 118.282 147.998C106.227 154.943 92.5592 158.574 78.6582 158.525C64.7572 158.476 51.1153 154.748 39.1094 147.717L42.3223 150.65L3.56569 164L16.6946 127.996C8.9607 118.042 3.70779 106.379 1.37286 93.9767C-0.962074 81.5747 -0.311529 68.7925 3.27042 56.6936C6.85238 44.5948 13.2621 33.5291 21.9664 24.4171C30.6707 15.3052 41.4178 8.41059 53.3137 4.30684C65.2095 0.20309 77.9101 -0.991108 90.3587 0.823599C102.807 2.63831 114.644 7.40945 124.884 14.7401C135.124 22.0707 143.471 31.7489 149.231 42.9693C154.991 54.1898 157.998 66.6281 158 79.2495H157.95Z" fill="#BE1616"/>
<path d="M64.8721 107.237C64.8721 107.237 43.0446 107.649 31.8903 124.606C31.8903 124.606 24.2937 148.905 25.0534 154.067L41.9178 148.929C50.3247 153.301 62.9476 156.648 80.9135 155.893C114.756 154.491 130 138.524 130 138.524C130 138.524 126.417 115.91 106.387 110.772C86.3577 105.634 64.8721 107.237 64.8721 107.237Z" fill="#BE1616"/>
<path d="M66.7493 86.6313C66.7493 86.6313 66.4712 103.349 65.1058 106.764C63.7405 110.179 75.814 120.616 88.1783 111.084L89 106.901C89 106.901 86.8129 95.2851 88.1783 85.1501C89.5436 75.0151 66.7493 86.6313 66.7493 86.6313Z" fill="#F7AF87"/>
<path d="M66 89.9366C66 89.9366 68.1174 101.105 77.082 101.883C86.0466 102.66 86.7771 99.319 86.7771 99.319L87 85L66 89.9366Z" fill="url(#paint0_linear)"/>
<path d="M53.4135 54.8863C52.9001 54.486 52.3113 54.212 51.6888 54.0834C51.0662 53.9549 50.425 53.9751 49.8105 54.1425C49.3341 54.3567 48.9113 54.6889 48.5766 55.112C46.7011 57.2504 46.7998 60.624 47.3427 63.5062C47.6769 65.1231 48.1308 66.7087 48.7 68.2478C48.9289 68.9626 49.2666 69.6314 49.6995 70.2268C51.0197 71.9401 53.4012 72.1659 55.4371 71.9136C56.0492 71.9137 56.6526 71.7572 57.1976 71.457C57.7425 71.1568 58.2133 70.7215 58.5712 70.1869C58.7574 69.7288 58.8661 69.2385 58.892 68.7392C59.4103 62.935 58.1393 57.9676 53.4135 54.8863Z" fill="#F7AF87"/>
<path d="M104.33 58.3779C105.67 57.3521 107.413 56.565 108.916 57.2687C109.505 57.5938 110.006 58.0819 110.369 58.6845C110.732 59.2871 110.945 59.9832 110.986 60.7036C111.061 62.1492 110.83 63.5942 110.311 64.9258C109.798 66.6378 108.988 68.2253 107.925 69.6012C106.841 70.9631 105.32 71.8171 103.677 71.9866C102.856 72.054 102.035 71.8658 101.309 71.4437C100.582 71.0215 99.979 70.3827 99.57 69.6012C99.17 68.5526 98.9841 67.421 99.0253 66.2855C98.9501 65.4075 99.0429 64.5219 99.2977 63.6854C99.9404 61.956 102.958 59.4155 104.33 58.3779Z" fill="#F7AF87"/>
<path d="M102.407 63.655C100.412 80.2983 91.113 94 77.197 94C63.2811 94 52 80.4129 52 63.655C52 46.8972 60.9533 28 74.8692 28C88.7852 28 106.474 29.6172 102.407 63.655Z" fill="#F7AF87"/>
<path d="M52.5977 56.7726L52.8299 60.6042C52.8299 61.2078 53.0234 61.9163 53.6038 62.0869C54.1842 62.2575 54.7517 61.1946 54.7646 60.4073C54.7646 57.2581 53.7972 53.702 55.719 51.222C56.2001 50.7379 56.6321 50.206 57.0089 49.6342C57.8085 47.994 56.5961 45.9076 57.3184 44.228C57.744 43.2701 58.6856 42.6796 59.3692 41.8792C60.2077 40.6284 60.8475 39.2513 61.2653 37.7983C61.4207 37.3095 61.7229 36.8827 62.1294 36.5779C62.5172 36.4136 62.9251 36.3032 63.3419 36.2499C64.9154 35.8431 65.8441 34.2029 67.2113 33.3499C68.4488 32.7234 69.8333 32.4599 71.2097 32.5889C76.5883 32.7594 82.1861 34.7015 87.1647 32.5889C89.2105 35.5469 92.3203 37.5649 95.8194 38.205C96.1114 38.2226 96.3928 38.3225 96.632 38.4937C96.8622 38.7759 97.0136 39.1158 97.0705 39.4779C97.5842 40.6315 98.3111 41.6739 99.2116 42.5484C102.32 46.485 102.256 51.9306 102.023 56.9825L101.662 65L104.41 60.3024C104.692 59.754 105.063 59.2573 105.506 58.8327C106.009 58.3997 106.68 58.1372 106.989 57.5205C107.12 57.2131 107.194 56.884 107.208 56.5495L107.879 49.6736C108.076 48.4347 108.032 47.1687 107.75 45.947C107.518 45.1859 107.105 44.4904 106.873 43.7294C106.615 42.3317 106.575 40.9012 106.757 39.491C106.846 38.7847 106.784 38.0671 106.575 37.3876C106.365 36.7081 106.014 36.0827 105.545 35.5544C106.447 32.4839 107.299 29.2296 106.589 26.1066C105.88 22.9836 103.029 20.1362 99.921 20.6085C99.4503 20.7357 98.9601 20.7713 98.4764 20.7135C98.0688 20.5712 97.6953 20.3432 97.3801 20.0443C95.2116 18.3066 92.5658 17.2978 89.8089 17.1575C86.5618 16.9475 83.3049 16.9475 80.0579 17.1575C72.7575 17.7742 65.096 16.2389 58.2729 18.9158C56.6299 19.5321 55.1158 20.4581 53.8101 21.6452C52.4627 23.0441 51.3046 24.6195 50.3663 26.3297C49.8425 27.0904 49.454 27.9387 49.2184 28.836C49.1082 29.8213 49.1082 30.8162 49.2184 31.8015C49.2184 35.0952 47.5674 38.3625 48.1091 41.5774C48.3026 42.7715 48.7798 43.8868 48.9475 45.0809C49.0378 46.1681 49.0378 47.2611 48.9475 48.3483C48.8585 51.0988 49.3329 53.8381 50.3405 56.392C50.5082 56.825 50.7791 57.3237 51.2434 57.3631C51.7077 57.4024 52.185 56.2608 52.5977 56.7726Z" fill="#404040"/>
<path d="M57.3729 84.0051C57.7102 85.4625 58.2302 86.8748 58.9214 88.2108C60.6958 91.1159 63.4921 93.3097 66.8014 94.3929C70.0913 95.4487 73.5371 95.9819 77.0042 95.9716C81.6565 96.0927 86.3109 95.8265 90.9159 95.1762C92.5643 94.9473 92.4394 94.5978 93.7632 93.6458C95.8986 92.1033 98.3463 89.3557 98.7584 86.8129C100.082 79.2571 102.293 68.7366 101.968 61.0723C99.8449 64.8563 99.8699 72.9545 96.7853 76.0636C95.1119 77.7386 92.6143 78.3171 90.2415 78.6907C82.6079 79.9106 74.8101 79.8086 67.2135 78.3894C64.9154 78.1381 62.7443 77.2414 60.9695 75.8105C58.272 73.2437 58.4718 69.1102 57.8849 65.495C57.6476 63.9043 57.0107 61.5302 55.1999 61C54.6505 64.1694 55.3997 67.64 55.4747 70.8335C55.5862 75.2794 56.223 79.6985 57.3729 84.0051Z" fill="#404040"/>
<path d="M50.7254 62.6501C50.7313 62.3012 50.6784 61.9532 50.5681 61.6159C50.5099 61.448 50.3895 61.2989 50.2232 61.1886C50.0569 61.0784 49.8528 61.0126 49.6388 61C49.1813 61 48.8524 61.3486 48.638 61.674C47.8692 63.0522 47.7922 64.6197 48.4235 66.0433C48.8921 67.4955 49.995 68.7594 51.5261 69.5992C51.9003 69.8259 52.3455 69.9625 52.8107 69.9933C53.2759 70.0241 53.7424 69.948 54.1568 69.7735C55.5866 68.9717 55.029 66.6244 53.7422 65.9736C52.9558 65.5785 52.3124 65.625 51.6976 64.9277C51.1093 64.2609 50.7716 63.4698 50.7254 62.6501Z" fill="url(#paint1_linear)"/>
<path d="M107.273 62.6501C107.267 62.3012 107.32 61.9532 107.43 61.6159C107.489 61.448 107.609 61.2989 107.776 61.1886C107.942 61.0784 108.146 61.0126 108.36 61C108.818 61 109.147 61.3486 109.362 61.674C110.131 63.0522 110.208 64.6197 109.576 66.0433C109.107 67.4955 108.004 68.7594 106.472 69.5992C106.097 69.8259 105.652 69.9625 105.186 69.9933C104.721 70.0241 104.254 69.948 103.839 69.7735C102.409 68.9717 102.981 66.6244 104.254 65.9736C105.041 65.5785 105.685 65.625 106.3 64.9277C106.889 64.2609 107.227 63.4698 107.273 62.6501Z" fill="url(#paint2_linear)"/>
<path d="M93.8863 100.571C92.5655 99.9913 91.1094 99.7622 89.6672 99.9065C80.7675 100.136 71.5645 101.924 63.1922 99C61.757 100.35 60.7037 102.033 60.1333 103.89C59.2763 107.81 62.6911 111.449 66.3829 113.237C72.6193 116.276 79.9236 116.212 86.8852 115.79C89.6145 115.637 92.5678 115.369 94.5983 113.581C97.8285 110.798 98 102.805 93.8863 100.571Z" fill="#BE1616"/>
<path d="M61.6312 107C61.6312 107 58.7792 113.409 73 113.68C73 113.68 58.7792 113.951 54.8021 116.891C50.825 119.831 40.8692 124.371 40.3066 130.264C39.7441 136.156 36.3164 151.916 36.3164 151.916L25 156L32.0646 125.244C35.4131 120.471 39.7626 116.391 44.8466 113.254C49.9306 110.117 55.642 107.989 61.6312 107Z" fill="url(#paint3_linear)"/>
<defs>
<linearGradient id="paint0_linear" x1="7363.29" y1="3701.41" x2="7422.83" y2="2592.7" gradientUnits="userSpaceOnUse">
<stop stop-opacity="0"/>
<stop offset="0.99"/>
</linearGradient>
<linearGradient id="paint1_linear" x1="2323.21" y1="1565.89" x2="2393.78" y2="1557.93" gradientUnits="userSpaceOnUse">
<stop stop-opacity="0"/>
<stop offset="0.99"/>
</linearGradient>
<linearGradient id="paint2_linear" x1="6636.61" y1="1565.89" x2="6566.04" y2="1557.93" gradientUnits="userSpaceOnUse">
<stop stop-opacity="0"/>
<stop offset="0.99"/>
</linearGradient>
<linearGradient id="paint3_linear" x1="15975.9" y1="11989.5" x2="14241.8" y2="6130.1" gradientUnits="userSpaceOnUse">
<stop stop-opacity="0"/>
<stop offset="0.99"/>
</linearGradient>
</defs>
</svg>
